<?xml version="1.0" standalone="no"?>
<!DOCTYPE svg PUBLIC "-//W3C//DTD SVG 1.1//EN" "http://www.w3.org/Graphics/SVG/1.1/DTD/svg11.dtd" >
<svg xmlns="http://www.w3.org/2000/svg">
<metadata>
This is a custom SVG webfont generated by Font Squirrel.
Copyright   : Copyright c Elektrosmog Valentin HIndermann Marco Walser and Pierre Miedinger wwwlinetocom 2006 All rights reserved
</metadata>
<defs>
<font id="webfonteyJ5mwIu" horiz-adv-x="925" >
<font-face units-per-em="2048" ascent="1638" descent="-410" />
<missing-glyph horiz-adv-x="364" />
<glyph unicode=" "  horiz-adv-x="364" />
<glyph unicode="&#x09;" horiz-adv-x="364" />
<glyph unicode="&#xa0;" horiz-adv-x="364" />
<glyph unicode="!" horiz-adv-x="534" d="M176 1075v340q0 14 10.5 25.5t26.5 11.5h106q16 0 26.5 -11t10.5 -26v-340l-49 -629q-4 -37 -41 -36.5t-41 36.5q-49 482 -49 629zM360 131v-94q0 -16 -10 -26.5t-26 -10.5h-113q-14 0 -25.5 10t-11.5 27v94q0 16 11.5 26.5t25.5 10.5h113q16 0 26 -10.5t10 -26.5z" />
<glyph unicode="&#x22;" horiz-adv-x="788" d="M293 1415v-371q0 -16 -11.5 -26t-25.5 -10h-74q-14 0 -25.5 10t-11.5 26v371q0 14 11.5 25.5t25.5 11.5h74q14 0 25.5 -11.5t11.5 -25.5zM635 1415v-371q0 -16 -10.5 -26t-26.5 -10h-74q-16 0 -26.5 10t-10.5 26v371q0 14 10.5 25.5t26.5 11.5h74q16 0 26.5 -11.5 t10.5 -25.5z" />
<glyph unicode="#" horiz-adv-x="1138" d="M920 403h-146l-84 -368q-6 -33 -47 -33h-51q-31 0 -31 33q0 10 2 22l78 346h-283l-84 -368q-6 -33 -47 -33h-51q-31 0 -31 33q0 10 2 22l78 346h-137q-37 0 -37 27q0 8 6 27l15 63q6 35 41 35h147l80 356h-145q-37 0 -37 27q0 8 6 27l14 63q6 35 41 35h156l78 342 q6 33 47 33h51q31 0 31 -33q0 -10 -2 -23l-74 -319h285l77 342q6 33 47 33h52q31 0 30 -33q0 -10 -2 -23l-73 -319h129q37 0 36 -27q0 -8 -6 -26l-14 -64q-6 -35 -41 -35h-137l-82 -356h137q37 0 37 -27q0 -8 -6 -26l-14 -64q-6 -35 -41 -35zM473 911l-82 -356h285l80 356 h-283z" />
<glyph unicode="$" horiz-adv-x="1138" d="M637 -41v-141q0 -14 -11.5 -25.5t-25.5 -11.5h-53q-14 0 -25.5 11t-11.5 26v139q-150 20 -248 126.5t-98 244.5v94q0 16 10 26.5t27 10.5h92q14 0 25.5 -10.5t11.5 -26.5v-72q0 -88 49 -153.5t131 -83.5v569l-168 111q-172 111 -172 309q0 154 90 262.5t250 126.5v137 q0 14 11 25.5t26 11.5h53q14 0 25.5 -11.5t11.5 -25.5v-137q158 -18 248 -127t90 -262v-17q0 -16 -10.5 -26t-26.5 -10h-92q-14 0 -25.5 10t-11.5 26v31q0 82 -45 141.5t-127 77.5v-538l164 -103q94 -61 133 -141t39 -195q0 -154 -93 -265t-243 -134zM807 338v45 q0 70 -27.5 106.5t-115.5 94.5l-27 16v-485q78 20 124 82.5t46 140.5zM334 1116v-37q0 -61 38 -100t130 -96l8 -6v460q-86 -18 -131 -78.5t-45 -142.5z" />
<glyph unicode="%" horiz-adv-x="1482" d="M240 1208v-250q0 -51 31.5 -83.5t84.5 -32.5q51 0 83 33.5t32 82.5v250q0 49 -31.5 83t-83.5 34q-53 0 -84.5 -33t-31.5 -84zM109 958v250q0 113 77.5 178.5t169.5 65.5q90 0 168 -65.5t78 -178.5v-250q0 -113 -78 -178t-168 -65q-92 0 -169.5 65t-77.5 178zM1010 444 v-249q0 -51 31.5 -84t84.5 -33q51 0 83 33.5t32 83.5v249q0 49 -31.5 83t-83.5 34q-53 0 -84.5 -33t-31.5 -84zM879 195v249q0 113 77.5 178.5t169.5 65.5q90 0 168 -65.5t78 -178.5v-249q0 -113 -77.5 -178.5t-168.5 -65.5q-92 0 -169.5 65.5t-77.5 178.5zM1071 1425 q0 -4 -4 -16l-578 -1509q-14 -43 -49 -43h-61q-29 0 -29 28q0 4 4 17l578 1509q14 41 51 41h61q27 0 27 -27z" />
<glyph unicode="&#x26;" horiz-adv-x="1196" d="M530 903q188 121 189 266q0 74 -37 129.5t-127 55.5q-156 0 -156 -185q0 -98 131 -266zM803 221l-318 494q-213 -109 -213 -322q0 -129 70 -208t209 -79q156 0 252 115zM977 215l102 -158q8 -12 8 -24q0 -33 -36 -33h-76q-31 0 -49 31l-41 63q-129 -139 -340 -139 q-217 0 -324.5 124t-107.5 312q0 281 286 445q-12 23 -53 85t-53 86.5t-27.5 73.5t-15.5 99q0 141 84 229t217 88t222 -90t89 -231q0 -121 -62.5 -205t-193.5 -183l281 -434q51 84 69 219q0 16 11.5 26.5t25.5 10.5h74q14 0 25.5 -10t11.5 -27q-27 -198 -127 -358z" />
<glyph unicode="'" horiz-adv-x="438" d="M293 1415v-371q0 -16 -11.5 -26t-25.5 -10h-74q-14 0 -25.5 10t-11.5 26v371q0 14 11.5 25.5t25.5 11.5h74q14 0 25.5 -11.5t11.5 -25.5z" />
<glyph unicode="(" horiz-adv-x="638" d="M274 526.5q0 -235.5 71 -482.5t196 -447q4 -8 4 -15q0 -10 -8.5 -19t-20.5 -9h-90q-31 0 -51 45q-115 193 -183.5 443.5t-68.5 484t68.5 484.5t183.5 443q20 45 51 45h90q12 0 20.5 -9t8.5 -20q0 -6 -4 -14q-125 -201 -196 -447.5t-71 -482z" />
<glyph unicode=")" horiz-adv-x="638" d="M365 526.5q0 235.5 -71 482t-196 447.5q-4 8 -4 14q0 10 8.5 19.5t20.5 9.5h90q31 0 51 -45q115 -193 183.5 -443.5t68.5 -484t-68.5 -484.5t-183.5 -443q-20 -45 -51 -45h-90q-12 0 -20.5 9t-8.5 19q0 6 4 15q125 201 196 447.5t71 482z" />
<glyph unicode="*" horiz-adv-x="1011" d="M541 1452q45 0 45 -57q0 -61 -15 -291l260 110q8 4 29 5q35 0 43 -27l25 -66q2 -6 2 -16q-4 -35 -41 -45q-61 -23 -268 -84q150 -197 170 -233q12 -25 12 -37q0 -20 -19 -33l-59 -37q-10 -8 -25 -8q-23 2 -43 31q-33 51 -151 251q-119 -201 -152 -251q-20 -29 -43 -31 q-14 0 -24 8l-60 37q-18 12 -18 33q0 12 12 37q20 37 170 233q-207 61 -268 84q-37 10 -41 45q0 10 2 16l25 66q8 27 43 27q20 0 28 -5l260 -110q-14 229 -14 291q0 57 45 57h70z" />
<glyph unicode="+" horiz-adv-x="1173" d="M666 475v-436q0 -14 -11.5 -25.5t-25.5 -11.5h-82q-14 0 -25.5 11.5t-11.5 25.5v436h-381q-14 0 -25.5 10.5t-11.5 26.5v74q0 16 11.5 26.5t25.5 10.5h381v436q0 14 11 25.5t26 11.5h82q14 0 25.5 -11.5t11.5 -25.5v-436h378q16 0 26.5 -10.5t10.5 -26.5v-74 q0 -16 -10 -26.5t-27 -10.5h-378z" />
<glyph unicode="," horiz-adv-x="485" d="M197 -139h8q27 2 45 28.5t18 59.5q0 47 -41 51h-57q-14 0 -25.5 10t-11.5 27v117q0 14 11.5 25t25.5 11h145q16 0 26.5 -11t10.5 -25v-154q0 -82 -35.5 -143.5t-101.5 -69.5h-18q-23 0 -23 20v31q0 23 23 23z" />
<glyph unicode="-" horiz-adv-x="927" d="M150 623h628q16 0 26.5 -10.5t10.5 -26.5v-74q0 -16 -10 -26.5t-27 -10.5h-628q-14 0 -25.5 10.5t-11.5 26.5v74q0 16 11.5 26.5t25.5 10.5z" />
<glyph unicode="." horiz-adv-x="485" d="M352 154v-117q0 -16 -10 -26.5t-27 -10.5h-145q-14 0 -25.5 10t-11.5 27v117q0 14 11.5 25t25.5 11h145q16 0 26.5 -11t10.5 -25z" />
<glyph unicode="/" horiz-adv-x="802" d="M762 1425q0 -4 -4 -16l-578 -1509q-14 -43 -49 -43h-61q-29 0 -29 28q0 4 4 17l578 1509q14 41 51 41h61q27 0 27 -27z" />
<glyph unicode="0" horiz-adv-x="1011" d="M506 1485q170 0 279.5 -106.5t109.5 -284.5v-742q0 -178 -109.5 -284.5t-279.5 -106.5t-279.5 106.5t-109.5 284.5v742q0 178 109.5 284.5t279.5 106.5zM505.5 1337q-106.5 0 -171 -66.5t-64.5 -174.5v-744q0 -109 64.5 -176t171 -67t171 67.5t64.5 175.5v744 q0 109 -64.5 175t-171 66z" />
<glyph unicode="1" horiz-adv-x="706" d="M180 1270l15 2q74 12 103.5 44t47.5 116q4 20 31 20h88q14 0 25.5 -11t11.5 -26v-1378q0 -16 -11.5 -26.5t-25.5 -10.5h-82q-14 0 -25.5 10t-11.5 27v1081h-166q-16 0 -26.5 10.5t-10.5 26.5v78q0 16 10.5 26.5t26.5 10.5z" />
<glyph unicode="2" horiz-adv-x="952" d="M829 0h-694q-16 0 -26.5 10t-10.5 27v82q0 61 29 96l514 715q76 104 76 178q0 104 -63.5 167.5t-170.5 63.5q-104 0 -166.5 -66.5t-62.5 -174.5v-13q0 -16 -10.5 -26t-26.5 -10h-76q-14 0 -25.5 10t-11.5 26v29q0 154 99.5 262.5t279.5 108.5q170 0 278.5 -104.5 t108.5 -272.5q0 -123 -79 -234l-525 -727h563q14 0 25.5 -10t11.5 -26v-74q0 -16 -11.5 -26.5t-25.5 -10.5z" />
<glyph unicode="3" horiz-adv-x="929" d="M524 678h-82q-16 0 -26 11t-10 26v98q0 14 10 25.5t26 11.5h78q156 0 156 172v88q0 111 -59.5 169t-159.5 58q-104 0 -159.5 -64.5t-55.5 -162.5q0 -16 -10.5 -26.5t-26.5 -10.5h-82q-16 0 -26.5 10.5t-10.5 26.5q0 162 100.5 268.5t270.5 106.5q162 0 266 -98.5 t104 -260.5v-98q0 -100 -19.5 -153.5t-96.5 -110.5q47 -25 76.5 -58.5t42 -80.5t15.5 -83t3 -93v-95q0 -178 -109.5 -285.5t-281.5 -107.5q-170 0 -279.5 109.5t-109.5 287.5v7q0 16 11 26t25 10h84q16 0 26.5 -10t10.5 -26v-7q0 -111 63.5 -180t168 -69t169 67.5 t64.5 177.5v144q0 86 -43 133t-123 47z" />
<glyph unicode="4" horiz-adv-x="999" d="M614 518v801l-397 -801h397zM70 408v100q0 27 20 70l424 856q10 18 33 18h186q16 0 26.5 -11t10.5 -26v-897h125q14 0 25.5 -11t11.5 -26v-73q0 -14 -11.5 -25.5t-25.5 -11.5h-125v-334q0 -16 -10 -26.5t-27 -10.5h-82q-16 0 -26.5 10t-10.5 27v334h-508q-16 0 -26 11.5 t-10 25.5z" />
<glyph unicode="5" horiz-adv-x="954" d="M109 346v6q0 16 11 26.5t25 10.5h80q16 0 26.5 -10t10.5 -27q0 -109 62.5 -176t164.5 -67q100 0 163 67.5t63 175.5v240q0 248 -230 248q-94 0 -150 -61.5t-65 -160.5q0 -16 -10 -26t-27 -10h-77q-16 0 -26.5 10t-10.5 26v797q0 14 10 25.5t27 11.5h628q14 0 25.5 -11 t11.5 -26v-78q0 -14 -11 -25.5t-26 -11.5h-514v-438q111 133 295 133q133 0 220 -102t87 -246v-295q0 -178 -111.5 -284.5t-271.5 -106.5q-164 0 -271 102.5t-109 282.5z" />
<glyph unicode="6" horiz-adv-x="958" d="M485 797q-98 0 -157.5 -71t-59.5 -181v-187q0 -111 59.5 -180t158 -69t157.5 69.5t59 179.5v201q0 238 -217 238zM692 1135q0 92 -58.5 150t-148.5 58q-98 0 -157.5 -68.5t-59.5 -178.5v-267q104 135 273 136q131 0 223 -96.5t92 -274.5v-236q0 -178 -104.5 -287.5 t-266 -109.5t-267 109.5t-105.5 287.5v738q0 178 105.5 288.5t266.5 110.5q154 0 258.5 -100.5t104.5 -259.5q0 -16 -10.5 -26.5t-26.5 -10.5h-82q-16 0 -26.5 10.5t-10.5 26.5z" />
<glyph unicode="7" horiz-adv-x="802" d="M68 1452h647q14 0 25.5 -11t11.5 -26v-72q0 -35 -21 -90l-446 -1212q-16 -41 -43 -41h-86q-35 0 -35 41q0 10 4 20l455 1242h-512q-14 0 -25.5 10t-11.5 26v76q0 14 11.5 25.5t25.5 11.5z" />
<glyph unicode="8" horiz-adv-x="970" d="M485.5 1485q155.5 0 259 -93.5t103.5 -224.5v-110q0 -197 -143 -277q96 -49 134 -129t38 -196v-101q0 -180 -110 -286.5t-282 -106.5t-281.5 106.5t-109.5 286.5v101q0 117 38 196.5t134 128.5q-143 80 -143 277v110q0 131 103.5 224.5t259 93.5zM485.5 850 q100.5 0 160 57.5t59.5 161.5v49q0 104 -59.5 161.5t-160 57.5t-160 -57t-59.5 -162v-49q0 -104 59.5 -161.5t160 -57.5zM485.5 109q104.5 0 169 67.5t64.5 177.5v101q0 111 -64.5 179t-169 68t-169 -68.5t-64.5 -178.5v-101q0 -111 64.5 -178t169 -67z" />
<glyph unicode="9" horiz-adv-x="958" d="M473 1343q-98 0 -157.5 -67.5t-59.5 -177.5v-189q0 -248 217 -247q92 0 154.5 69.5t62.5 177.5v189q0 111 -59.5 178t-157.5 67zM266 324q0 -92 58.5 -150.5t148.5 -58.5q98 0 157.5 68.5t59.5 178.5v267q-104 -135 -262 -135q-141 0 -233.5 103t-92.5 275v228 q0 178 104.5 287.5t266.5 109.5t267.5 -109.5t105.5 -287.5v-738q0 -178 -105.5 -288.5t-267.5 -110.5q-154 0 -258 100.5t-104 260.5q0 16 10 26t26 10h82q16 0 26.5 -10t10.5 -26z" />
<glyph unicode=":" horiz-adv-x="485" d="M352 868v-116q0 -14 -10 -25.5t-27 -11.5h-145q-14 0 -25.5 11t-11.5 26v116q0 16 11.5 26.5t25.5 10.5h145q16 0 26.5 -10.5t10.5 -26.5zM352 154v-117q0 -16 -10 -26.5t-27 -10.5h-145q-14 0 -25.5 10t-11.5 27v117q0 14 11.5 25t25.5 11h145q16 0 26.5 -11t10.5 -25z " />
<glyph unicode=";" horiz-adv-x="485" d="M352 868v-116q0 -14 -10 -25.5t-27 -11.5h-145q-14 0 -25.5 11t-11.5 26v116q0 16 11.5 26.5t25.5 10.5h145q16 0 26.5 -10.5t10.5 -26.5zM203 -139h14q27 2 45.5 28.5t18.5 59.5q0 47 -41 51h-68q-16 0 -26.5 10t-10.5 27v117q0 14 10.5 25t26.5 11h145q14 0 25.5 -11 t11.5 -25v-154q0 -82 -35.5 -143.5t-101.5 -69.5h-14q-23 0 -23 20v31q0 23 23 23z" />
<glyph unicode="&#x3c;" horiz-adv-x="1173" d="M268 606q0 27 29 45l555 432q14 8 27 9q27 0 26 -31v-107q0 -23 -31 -45l-460 -360l460 -363q31 -23 31 -45v-106q0 -31 -26 -31q-12 0 -27 8l-555 434q-29 18 -29 46v114z" />
<glyph unicode="=" horiz-adv-x="1173" d="M238 834h696q16 0 26.5 -11.5t10.5 -25.5v-74q0 -14 -10.5 -25.5t-26.5 -11.5h-696q-16 0 -26.5 11.5t-10.5 25.5v74q0 14 10.5 25.5t26.5 11.5zM238 412h696q16 0 26.5 -11.5t10.5 -25.5v-74q0 -14 -10.5 -25.5t-26.5 -11.5h-696q-16 0 -26.5 11.5t-10.5 25.5v74 q0 14 10.5 25.5t26.5 11.5z" />
<glyph unicode="&#x3e;" horiz-adv-x="1173" d="M905 606v-114q0 -27 -28 -46l-555 -434q-14 -8 -27 -8q-27 0 -27 31v106q0 23 31 45l461 363l-461 360q-31 20 -31 45v107q0 31 27 31q12 0 27 -9l555 -432q28 -18 28 -45z" />
<glyph unicode="?" horiz-adv-x="978" d="M358 436v78q0 113 72 195l219 247q66 74 66 154q0 233 -223 233q-109 0 -166.5 -64.5t-57.5 -170.5v-8q0 -14 -11 -25.5t-26 -11.5h-88q-16 0 -26.5 11t-10.5 26v24q0 162 109 266.5t274 104.5q164 0 273.5 -100.5t109.5 -280.5q0 -127 -77 -217l-205 -233 q-41 -45 -51.5 -74t-10.5 -105v-49q0 -14 -10 -25.5t-26 -11.5h-97q-14 0 -25.5 11.5t-11.5 25.5zM539 154v-117q0 -16 -11.5 -26.5t-25.5 -10.5h-117q-16 0 -26.5 10t-10.5 27v117q0 14 10.5 25t26.5 11h117q14 0 25.5 -11t11.5 -25z" />
<glyph unicode="@" horiz-adv-x="1560" d="M932 764q0 84 -38 117.5t-130 33.5q-86 0 -146.5 -91t-60.5 -232q0 -147 152 -148q158 0 211 236q12 49 12 84zM1143 49q-33 -43 -145.5 -79t-239.5 -36q-305 0 -489.5 213t-184.5 535q0 131 49 263t137 241.5t226.5 178.5t298.5 69q289 0 484.5 -169t195.5 -429 q0 -248 -122 -387.5t-290 -139.5q-33 0 -53.5 4t-51 31t-47.5 80q-57 -70 -113.5 -92.5t-131.5 -22.5q-113 0 -176.5 88t-63.5 191q0 213 107.5 341t273.5 128q119 0 192 -84l15 49q8 31 41 31h57q27 0 27 -27q0 -10 -2 -16l-88 -410q-10 -41 -11 -74q0 -29 2 -43 t18.5 -26.5t49.5 -12.5q92 0 166 102.5t74 256.5q0 225 -158 362.5t-402 137.5q-231 0 -403 -181.5t-172 -445.5q0 -270 146.5 -440t416.5 -170q164 0 268 69q31 23 48 23q20 0 38 -31q23 -37 23 -53q0 -11 -10 -25z" />
<glyph unicode="A" horiz-adv-x="1081" d="M627 1452q25 0 32 -29l369 -1376q2 -10 2 -14q0 -14 -12 -23.5t-29 -9.5h-84q-25 0 -33 35l-81 309h-500l-82 -309q-8 -35 -33 -35h-84q-16 0 -28.5 9t-12.5 24q0 6 2 14l369 1376q8 29 33 29h172zM752 496l-211 796l-211 -796h422z" />
<glyph unicode="B" horiz-adv-x="1017" d="M735 1034v86q0 100 -46 146.5t-146 46.5h-256v-473h260q98 0 143 47t45 147zM287 139h282q92 0 137.5 41t45.5 133v185q0 100 -48.5 147t-146.5 47h-270v-553zM651 0h-491q-16 0 -26.5 10t-10.5 27v1378q0 14 10 25.5t27 11.5h469q115 0 185.5 -71.5t70.5 -182.5v-188 q0 -180 -144 -242q92 -23 138.5 -98.5t46.5 -177.5v-220q0 -117 -78 -194.5t-197 -77.5z" />
<glyph unicode="C" horiz-adv-x="1013" d="M918 385v-27q0 -178 -115 -287.5t-287 -109.5t-286.5 109.5t-114.5 287.5v738q0 178 114.5 288.5t286.5 110.5t287 -110.5t115 -288.5v-23q0 -16 -10.5 -26.5t-26.5 -10.5h-95q-16 0 -26 10.5t-10 26.5v23q0 111 -64.5 179t-169 68t-169 -68.5t-64.5 -178.5v-738 q0 -111 64.5 -178t169 -67t169 67.5t64.5 177.5v27q0 16 10 26.5t26 10.5h95q16 0 26.5 -10.5t10.5 -26.5z" />
<glyph unicode="D" horiz-adv-x="1017" d="M745 328v796q0 188 -170 189h-286v-1174h286q170 1 170 189zM162 1452h465q119 0 198.5 -82t79.5 -219v-850q0 -137 -80 -219t-198 -82h-465q-14 0 -25.5 10t-11.5 27v1378q0 14 11.5 25.5t25.5 11.5z" />
<glyph unicode="E" d="M809 1305h-520v-453h434q14 0 25.5 -10.5t11.5 -26.5v-74q0 -16 -11.5 -26t-25.5 -10h-434v-558h528q14 0 25.5 -10t11.5 -26v-74q0 -16 -11.5 -26.5t-25.5 -10.5h-655q-14 0 -25.5 10t-11.5 27v1378q0 14 11 25.5t26 11.5h647q14 0 25.5 -11t11.5 -26v-74 q0 -14 -11.5 -25t-25.5 -11z" />
<glyph unicode="F" horiz-adv-x="870" d="M782 1305h-512v-453h424q14 0 25.5 -10.5t11.5 -26.5v-74q0 -16 -11 -26t-26 -10h-424v-668q0 -16 -10 -26.5t-27 -10.5h-90q-16 0 -26.5 10t-10.5 27v1378q0 14 10.5 25.5t26.5 11.5h639q16 0 26.5 -11t10.5 -26v-74q0 -14 -10.5 -25t-26.5 -11z" />
<glyph unicode="G" horiz-adv-x="1032" d="M750 37v69q-96 -145 -275 -145q-150 0 -255 102.5t-105 294.5v738q0 178 114.5 288.5t286.5 110.5t287 -110.5t115 -288.5v-23q0 -16 -10.5 -26.5t-26.5 -10.5h-95q-16 0 -26 10.5t-10 26.5v23q0 111 -64.5 179t-169 68t-169 -68.5t-64.5 -178.5v-738q0 -111 64.5 -178 t169 -67t169 67.5t64.5 177.5v297h-175q-14 0 -25 10.5t-11 26.5v88q0 14 11 25.5t25 11.5h306q16 0 26.5 -11t10.5 -26v-743q0 -16 -10.5 -26.5t-26.5 -10.5h-95q-16 0 -26 10.5t-10 26.5z" />
<glyph unicode="H" horiz-adv-x="1087" d="M297 831h494v584q0 14 10 25.5t26 11.5h91q16 0 26 -11t10 -26v-1378q0 -16 -10 -26.5t-26 -10.5h-91q-16 0 -26 10t-10 27v649h-494v-649q0 -16 -11.5 -26.5t-25.5 -10.5h-90q-14 0 -25.5 10t-11.5 27v1378q0 14 11.5 25.5t25.5 11.5h90q14 0 25.5 -11t11.5 -26v-584z " />
<glyph unicode="I" horiz-adv-x="434" d="M299 1415v-1378q0 -16 -10 -26.5t-27 -10.5h-90q-16 0 -26.5 10t-10.5 27v1378q0 14 10.5 25.5t26.5 11.5h90q16 0 26.5 -11.5t10.5 -25.5z" />
<glyph unicode="J" horiz-adv-x="942" d="M236 399v-41q0 -113 56 -179t164.5 -66t165 66.5t56.5 178.5v1057q0 14 11 25.5t26 11.5h90q14 0 25.5 -11t11.5 -26v-1057q0 -180 -107.5 -288.5t-277.5 -108.5t-277.5 108.5t-107.5 288.5v41q0 14 11 25.5t26 11.5h90q14 0 25.5 -11.5t11.5 -25.5z" />
<glyph unicode="K" horiz-adv-x="978" d="M289 756v-719q0 -16 -11.5 -26.5t-25.5 -10.5h-90q-14 0 -25.5 10t-11.5 27v1378q0 14 11 25.5t26 11.5h90q14 0 25.5 -11t11.5 -26v-596l407 590q29 43 64 43h65q47 0 47 -31q0 -10 -10 -26l-416 -600l457 -736q4 -8 4 -24q0 -35 -45 -35h-76q-27 0 -53 45z" />
<glyph unicode="L" horiz-adv-x="845" d="M289 147h469q16 0 26.5 -10t10.5 -26v-74q0 -16 -10.5 -26.5t-26.5 -10.5h-596q-14 0 -25.5 10t-11.5 27v1378q0 14 11 25.5t26 11.5h90q14 0 25.5 -11t11.5 -26v-1268z" />
<glyph unicode="M" horiz-adv-x="1318" d="M1032 37v1274l-291 -1266q-12 -45 -45 -45h-73q-33 0 -45 45l-291 1266v-1274q0 -16 -10.5 -26.5t-26.5 -10.5h-88q-14 0 -25.5 10t-11.5 27v1378q0 14 11 25.5t26 11.5h205q35 0 45 -45l247 -1079l248 1079q10 45 45 45h205q14 0 25.5 -11t11.5 -26v-1378 q0 -16 -11.5 -26.5t-25.5 -10.5h-88q-16 0 -26.5 10.5t-10.5 26.5z" />
<glyph unicode="N" horiz-adv-x="1116" d="M117 37v1378q0 14 11 25.5t26 11.5h108q31 0 47 -35l527 -1110v1108q0 14 10 25.5t26 11.5h91q16 0 26 -11t10 -26v-1378q0 -16 -10 -26.5t-26 -10.5h-109q-31 0 -47 35l-526 1110v-1108q0 -16 -11.5 -26.5t-25.5 -10.5h-90q-14 0 -25.5 10.5t-11.5 26.5z" />
<glyph unicode="O" horiz-adv-x="1024" d="M512 113q104 0 168.5 67.5t64.5 177.5v738q0 111 -64.5 179t-168.5 68t-168.5 -68.5t-64.5 -178.5v-738q0 -111 64.5 -178t168.5 -67zM512 1495q172 0 286.5 -110.5t114.5 -288.5v-738q0 -178 -114.5 -287.5t-286.5 -109.5t-286.5 109.5t-114.5 287.5v738 q0 178 114.5 288.5t286.5 110.5z" />
<glyph unicode="P" horiz-adv-x="972" d="M289 565v-528q0 -16 -11.5 -26.5t-25.5 -10.5h-90q-14 0 -25.5 10t-11.5 27v1378q0 14 11 25.5t26 11.5h467q125 0 192.5 -74.5t67.5 -197.5v-342q0 -123 -68.5 -198t-193.5 -75h-338zM729 879v260q0 92 -45 133t-137 41h-258v-608h258q94 0 138 40t44 134z" />
<glyph unicode="Q" horiz-adv-x="1056" d="M516.5 106q104.5 0 169 68t64.5 178v744q0 111 -64.5 179t-169 68t-169 -68.5t-64.5 -178.5v-744q0 -111 64.5 -178.5t169 -67.5zM838 102h161q27 0 27 -24l-4 -17l-33 -59q-14 -41 -59 -41h-414q-172 0 -286.5 109.5t-114.5 287.5v738q0 178 114.5 288.5t286.5 110.5 t287 -110.5t115 -288.5v-744q0 -148 -80 -250z" />
<glyph unicode="R" horiz-adv-x="1013" d="M565 1313h-280v-508h266q100 0 146 47t46 147v140q0 174 -178 174zM911 469v-432q0 -16 -11 -26.5t-26 -10.5h-90q-14 0 -25 10t-11 27v465q0 90 -47.5 127t-145.5 37h-268v-629q0 -16 -10.5 -26.5t-26.5 -10.5h-90q-16 0 -26.5 10t-10.5 27v1378q0 14 10 25.5t27 11.5 h456q131 0 204 -71.5t73 -198.5v-209q0 -186 -148 -240q92 -33 129 -94t37 -170z" />
<glyph unicode="S" horiz-adv-x="954" d="M238 422v-64q0 -104 67.5 -173.5t171.5 -69.5q106 0 172 67.5t66 163.5v37q0 70 -28 106.5t-116 94.5l-321 209q-172 111 -172 309q0 170 107.5 281.5t295.5 111.5q186 0 294 -111.5t108 -281.5v-17q0 -16 -11.5 -26t-25.5 -10h-92q-16 0 -26.5 10t-10.5 26v31 q0 96 -61.5 161.5t-174.5 65.5q-117 0 -178 -64.5t-61 -162.5v-37q0 -61 37.5 -100t130.5 -96l299 -189q96 -61 134 -137t38 -190q0 -172 -114 -289t-290 -117q-170 0 -287.5 111.5t-117.5 263.5v86q0 16 11 26.5t26 10.5h92q16 0 26.5 -10.5t10.5 -26.5z" />
<glyph unicode="T" horiz-adv-x="915" d="M84 1452h747q16 0 26.5 -11t10.5 -26v-74q0 -14 -10 -25t-27 -11h-292v-1268q0 -16 -11.5 -26.5t-25.5 -10.5h-90q-14 0 -25.5 10t-11.5 27v1268h-291q-14 0 -25.5 11t-11.5 25v74q0 14 11.5 25.5t25.5 11.5z" />
<glyph unicode="U" horiz-adv-x="1032" d="M115 358v1057q0 14 10 25.5t27 11.5h94q16 0 26.5 -11t10.5 -26v-1057q0 -111 64.5 -178t169 -67t169 67.5t64.5 177.5v1057q0 14 10 25.5t26 11.5h95q16 0 26.5 -11t10.5 -26v-1057q0 -178 -115 -287.5t-287 -109.5t-286.5 109.5t-114.5 287.5z" />
<glyph unicode="V" horiz-adv-x="1007" d="M623 0h-238q-29 0 -37 37l-297 1370l-2 6q0 16 11.5 27.5t27.5 11.5h76q18 0 34.5 -13.5t18.5 -31.5l287 -1323l287 1323q2 18 18 31.5t35 13.5h76q16 0 27 -11t11 -28q0 -4 -2 -6l-297 -1370q-7 -37 -36 -37z" />
<glyph unicode="W" horiz-adv-x="1613" d="M1042 35l-235 1237l-236 -1237q-8 -35 -32 -35h-193q-37 0 -45 45l-246 1341q-4 16 -4 27q0 39 33 39h88q43 0 51 -45l219 -1282l236 1292q8 35 37 35h184q29 0 37 -35l235 -1292l220 1282q8 45 51 45h88q33 0 33 -39q0 -10 -4 -27l-246 -1341q-8 -45 -45 -45h-193 q-25 0 -33 35z" />
<glyph unicode="X" horiz-adv-x="1126" d="M563 883l271 522q16 31 25 39t28 8h94q14 0 24.5 -10t10.5 -25q0 -8 -4 -16l-328 -645l377 -701q4 -16 4 -18q0 -14 -10.5 -25.5t-24.5 -11.5h-102q-31 0 -58 49l-307 582l-307 -582q-27 -49 -57 -49h-103q-14 0 -24.5 11.5t-10.5 25.5q0 2 5 18l376 701l-327 645 q-4 8 -4 16q0 14 10 24.5t24 10.5h95q18 0 27 -8t26 -39z" />
<glyph unicode="Y" horiz-adv-x="1064" d="M451 37v641l-383 727q-4 8 -5 14q0 33 35 33h84q18 0 28.5 -8t27.5 -39l294 -543l295 543q16 31 26.5 39t29.5 8h84q35 0 34 -33q0 -6 -4 -14l-383 -727v-641q0 -16 -10 -26.5t-26 -10.5h-91q-16 0 -26 10.5t-10 26.5z" />
<glyph unicode="Z" horiz-adv-x="1026" d="M158 1452h743q16 0 26.5 -11t10.5 -26v-69q0 -59 -10 -76l-682 -1123h672q16 0 26 -10t10 -26v-74q0 -16 -10 -26.5t-26 -10.5h-809q-14 0 -25.5 10t-11.5 27v69q0 59 10 76l682 1123h-606q-14 0 -25.5 11t-11.5 25v74q0 14 11.5 25.5t25.5 11.5z" />
<glyph unicode="[" horiz-adv-x="567" d="M373 -301h55q14 0 25.5 -11.5t11.5 -25.5v-63q0 -16 -11.5 -26.5t-25.5 -10.5h-74q-100 0 -160.5 67.5t-60.5 171.5v1450q0 104 60.5 172t160.5 68h74q14 0 25.5 -10.5t11.5 -26.5v-63q0 -14 -11.5 -25.5t-25.5 -11.5h-55q-92 0 -92 -88v-1479q0 -88 92 -88z" />
<glyph unicode="\" horiz-adv-x="802" d="M41 1425q0 27 27 27h61q37 0 51 -41l578 -1509q4 -12 4 -17q0 -29 -29 -28h-61q-35 0 -49 43l-578 1509q-4 12 -4 16z" />
<glyph unicode="]" horiz-adv-x="567" d="M139 -301h56q92 0 92 88v1479q0 88 -92 88h-56q-16 0 -26.5 11t-10.5 26v63q0 16 10.5 26.5t26.5 10.5h74q100 0 160.5 -67.5t60.5 -172.5v-1450q0 -104 -60.5 -171.5t-160.5 -67.5h-74q-16 0 -26.5 10t-10.5 27v63q0 14 10.5 25.5t26.5 11.5z" />
<glyph unicode="^" horiz-adv-x="1173" d="M543 1493h86q25 0 35 -23l305 -546q6 -10 6 -21q0 -23 -21 -37l-61 -30q-8 -6 -19 -7q-25 0 -36 21l-252 455l-252 -455q-12 -20 -37 -21q-10 0 -18 7l-62 30q-20 14 -20 37q0 10 6 21l305 546q10 23 35 23z" />
<glyph unicode="_" horiz-adv-x="1083" d="M109 -174h866q16 0 26.5 -11.5t10.5 -25.5v-74q0 -14 -10.5 -25.5t-26.5 -11.5h-866q-14 0 -25.5 11.5t-11.5 25.5v74q0 14 11.5 25.5t25.5 11.5z" />
<glyph unicode="`" horiz-adv-x="641" d="M307 1307l-112 166q-4 8 -5 12q0 12 10.5 21.5t24.5 9.5h101q35 0 55 -43l63 -144q6 -10 7 -22q0 -33 -37 -33h-49q-33 0 -58 33z" />
<glyph unicode="a" horiz-adv-x="911" d="M655 594l-315 -158q-113 -59 -113 -168q0 -78 49.5 -120t122.5 -42q98 0 177 58.5t79 157.5v272zM260 545l285 135q109 49 108 129q0 82 -48 131t-146 49q-88 0 -138.5 -51t-50.5 -137v-8q0 -14 -10 -25.5t-27 -11.5h-77q-16 0 -26.5 11t-10.5 26v22q0 133 99 222t255 89 q164 0 249 -93t85 -238v-758q0 -16 -10.5 -26.5t-26.5 -10.5h-78q-16 0 -26.5 10t-10.5 27v98q-41 -70 -120.5 -114t-174.5 -44q-117 0 -203.5 74t-86.5 203q0 201 190 291z" />
<glyph unicode="b" horiz-adv-x="909" d="M817 784v-473q0 -158 -85 -251t-197 -93q-186 0 -271 166v-96q0 -16 -11 -26.5t-26 -10.5h-77q-14 0 -25.5 10t-11.5 27v1378q0 14 11 25.5t26 11.5h77q14 0 25.5 -11t11.5 -26v-452q84 166 271 165q113 0 197.5 -93t84.5 -251zM264 737v-379q0 -39 9.5 -77.5t30 -80.5 t63.5 -68t102 -26q195 0 195 252v379q0 252 -195 252q-59 0 -102 -25.5t-63.5 -67.5t-30 -81t-9.5 -78z" />
<glyph unicode="c" horiz-adv-x="907" d="M98 322v452q0 143 103.5 247.5t259 104.5t260 -104t104.5 -248v-10q0 -14 -11 -25.5t-26 -11.5h-79q-16 0 -26.5 11.5t-10.5 25.5v10q0 88 -60.5 151.5t-150.5 63.5q-88 0 -148.5 -63.5t-60.5 -151.5v-452q0 -88 60.5 -152t148.5 -64q90 0 150.5 63.5t60.5 152.5v20 q0 14 10 25.5t27 11.5h79q14 0 25.5 -11.5t11.5 -25.5v-20q0 -143 -104.5 -248t-260 -105t-259 105t-103.5 248z" />
<glyph unicode="d" horiz-adv-x="909" d="M92 311v473q0 158 85 251t198 93q186 0 270 -165v452q0 14 11.5 25.5t25.5 11.5h78q14 0 25.5 -11t11.5 -26v-1378q0 -16 -11.5 -26.5t-25.5 -10.5h-78q-14 0 -25.5 10t-11.5 27v96q-84 -166 -270 -166q-113 0 -198 93t-85 251zM645 358v379q0 39 -9 78t-29.5 81 t-63.5 67.5t-103 25.5q-195 0 -194 -252v-379q0 -252 194 -252q59 0 102.5 26t64 68t29.5 80.5t9 77.5z" />
<glyph unicode="e" horiz-adv-x="913" d="M248 643h434v131q0 88 -64.5 151.5t-152.5 63.5q-92 0 -154.5 -63.5t-62.5 -151.5v-131zM795 516h-547v-194q0 -88 62.5 -152t154.5 -64q86 0 149.5 59.5t63.5 139.5v17q0 14 11 25t26 11h80q16 0 26 -11t10 -25v-17q0 -137 -107.5 -236.5t-258.5 -99.5 q-156 0 -261.5 104.5t-105.5 248.5v452q0 143 105.5 247.5t261.5 104.5t261 -104t105 -248v-221q0 -16 -10 -26.5t-26 -10.5z" />
<glyph unicode="f" horiz-adv-x="575" d="M109 37v1171q0 111 69.5 177.5t196.5 66.5h112q16 0 26.5 -11t10.5 -26v-69q0 -14 -10 -25.5t-27 -11.5h-88q-84 0 -111.5 -32t-27.5 -114v-119h227q16 0 26.5 -10t10.5 -26v-70q0 -16 -10 -26.5t-27 -10.5h-227v-864q0 -16 -11 -26.5t-26 -10.5h-78q-14 0 -25 10.5 t-11 26.5z" />
<glyph unicode="g" horiz-adv-x="913" d="M645 -131v299q-84 -166 -270 -166q-113 0 -198 93t-85 251v438q0 158 85 251t198 93q186 0 270 -165v96q0 14 11.5 25.5t25.5 11.5h78q14 0 25.5 -11.5t11.5 -25.5v-1190q0 -160 -92 -258q-96 -102 -252 -103q-145 0 -247 99.5t-102 245.5v14q0 14 11.5 25.5t25.5 11.5 h74q14 0 25.5 -11.5t11.5 -25.5v-14q0 -94 51 -150.5t141 -56.5q102 0 154 57q47 55 47 166zM645 393v344q0 39 -9 78t-29.5 81t-63.5 67.5t-103 25.5q-195 0 -194 -252v-344q0 -252 194 -252q59 0 102.5 26t64 67.5t29.5 80.5t9 78z" />
<glyph unicode="h" d="M268 737v-700q0 -16 -11 -26.5t-26 -10.5h-77q-14 0 -25.5 10t-11.5 27v1378q0 14 11 25.5t26 11.5h77q14 0 25.5 -11t11.5 -26v-452q84 166 271 165q113 0 197.5 -93t84.5 -251v-747q0 -16 -11 -26.5t-26 -10.5h-79q-16 0 -26.5 10t-10.5 27v700q0 252 -195 252 q-59 0 -102 -25.5t-63.5 -67.5t-30 -81t-9.5 -78z" />
<glyph unicode="i" horiz-adv-x="425" d="M137 37v1022q0 14 11.5 25.5t25.5 11.5h78q14 0 25.5 -11.5t11.5 -25.5v-1022q0 -16 -11.5 -26.5t-25.5 -10.5h-78q-14 0 -25.5 10.5t-11.5 26.5zM125 1317v98q0 14 11 25.5t26 11.5h102q14 0 25.5 -11t11.5 -26v-98q0 -14 -11 -25.5t-26 -11.5h-102q-14 0 -25.5 11.5 t-11.5 25.5z" />
<glyph unicode="j" horiz-adv-x="395" d="M-45 -233h20q98 0 125 43t27 151v1098q0 14 10 25.5t27 11.5h78q16 0 26.5 -11.5t10.5 -25.5v-1180q0 -109 -76 -182.5t-174 -73.5h-74q-16 0 -26.5 10.5t-10.5 26.5v70q0 16 10.5 26.5t26.5 10.5zM115 1317v98q0 14 10 25.5t27 11.5h102q16 0 26.5 -11t10.5 -26v-98 q0 -14 -10.5 -25.5t-26.5 -11.5h-102q-16 0 -26.5 11.5t-10.5 25.5z" />
<glyph unicode="k" horiz-adv-x="880" d="M109 37v1378q0 14 11 25.5t25 11.5h78q14 0 25.5 -11t11.5 -26v-770l367 389q27 33 51 33h84q41 0 41 -29q0 -18 -8 -28l-383 -410l434 -537q10 -14 10 -24q0 -16 -14.5 -27.5t-34.5 -11.5h-82q-25 0 -57 43l-408 512v-518q0 -16 -11 -26.5t-26 -10.5h-78q-14 0 -25 10.5 t-11 26.5z" />
<glyph unicode="l" horiz-adv-x="401" d="M276 1415v-1378q0 -16 -11 -26.5t-25 -10.5h-78q-14 0 -25.5 10t-11.5 27v1378q0 14 11 25.5t26 11.5h78q14 0 25 -11.5t11 -25.5z" />
<glyph unicode="m" horiz-adv-x="1445" d="M268 1059v-96q84 166 264 165q74 0 142.5 -43t109.5 -122q37 72 109 118.5t168 46.5q113 0 196.5 -93t83.5 -251v-747q0 -16 -11 -26.5t-25 -10.5h-80q-16 0 -26.5 10t-10.5 27v700q0 252 -187 252q-188 0 -188 -252v-700q0 -16 -11 -26.5t-26 -10.5h-80q-16 0 -26.5 10 t-10.5 27v700q0 252 -192 252q-78 0 -126 -47t-60.5 -98t-12.5 -107v-700q0 -16 -11 -26.5t-26 -10.5h-77q-14 0 -25.5 10t-11.5 27v1022q0 14 11 25.5t26 11.5h77q14 0 25.5 -11.5t11.5 -25.5z" />
<glyph unicode="n" d="M268 737v-700q0 -16 -11 -26.5t-26 -10.5h-77q-14 0 -25.5 10t-11.5 27v1022q0 14 11 25.5t26 11.5h77q14 0 25.5 -11.5t11.5 -25.5v-96q84 166 271 165q113 0 197.5 -93t84.5 -251v-747q0 -16 -11 -26.5t-26 -10.5h-79q-16 0 -26.5 10t-10.5 27v700q0 252 -195 252 q-59 0 -102 -25.5t-63.5 -67.5t-30 -81t-9.5 -78z" />
<glyph unicode="o" horiz-adv-x="929" d="M465 -31q-156 0 -261.5 104.5t-105.5 248.5v452q0 143 105.5 247.5t261.5 104.5t261 -104t105 -248v-452q0 -143 -105 -248t-261 -105zM465 989q-88 0 -150.5 -63.5t-62.5 -151.5v-452q0 -88 62.5 -152t150.5 -64t150.5 63.5t62.5 152.5v452q0 88 -62.5 151.5 t-150.5 63.5z" />
<glyph unicode="p" horiz-adv-x="919" d="M817 784v-473q0 -158 -85 -251t-197 -93q-186 0 -271 166v-473q0 -16 -11 -26.5t-26 -10.5h-77q-14 0 -25.5 10.5t-11.5 26.5v1399q0 14 11 25.5t26 11.5h77q14 0 25.5 -11.5t11.5 -25.5v-96q84 166 271 165q113 0 197.5 -93t84.5 -251zM264 737v-379q0 -39 9.5 -77.5 t30 -80.5t63.5 -68t102 -26q195 0 195 252v379q0 252 -195 252q-59 0 -102 -25.5t-63.5 -67.5t-30 -81t-9.5 -78z" />
<glyph unicode="q" horiz-adv-x="909" d="M92 311v473q0 158 85 251t198 93q186 0 270 -165v96q0 14 11.5 25.5t25.5 11.5h78q14 0 25.5 -11.5t11.5 -25.5v-1399q0 -16 -11.5 -26.5t-25.5 -10.5h-78q-14 0 -25.5 10.5t-11.5 26.5v473q-84 -166 -270 -166q-113 0 -198 93t-85 251zM645 358v379q0 39 -9 78t-29.5 81 t-63.5 67.5t-103 25.5q-195 0 -194 -252v-379q0 -252 194 -252q59 0 102.5 26t64 68t29.5 80.5t9 77.5z" />
<glyph unicode="r" horiz-adv-x="788" d="M754 887v-96q0 -16 -10.5 -26.5t-26.5 -10.5h-78q-16 0 -26.5 10t-10.5 27v20q0 178 -160 178q-88 0 -133 -51t-45 -127v-774q0 -16 -11 -26.5t-26 -10.5h-77q-14 0 -25.5 10t-11.5 27v1022q0 14 11 25.5t26 11.5h77q14 0 25.5 -11.5t11.5 -25.5v-82q104 152 268 151 q94 0 158 -71.5t64 -169.5z" />
<glyph unicode="s" horiz-adv-x="872" d="M324 698l323 -161q147 -76 148 -244q0 -133 -95.5 -228.5t-261.5 -95.5t-265 98.5t-99 243.5v13q0 16 10 26t27 10h73q16 0 26.5 -10t10.5 -26v-9q0 -96 58.5 -152.5t158.5 -56.5q106 0 161.5 54.5t55.5 124.5q0 45 -21.5 75.5t-78.5 59.5l-301 151q-164 82 -164 252 q0 139 93 221t245 82q145 0 248.5 -78.5t109.5 -213.5q0 -29 -4 -43q-8 -37 -32 -37h-70q-16 0 -26.5 10t-10.5 27v8q0 190 -213 190q-86 0 -144.5 -40t-58.5 -115q1 -89 97 -136z" />
<glyph unicode="t" horiz-adv-x="563" d="M426 141h66q16 0 26 -11t10 -26v-67q0 -16 -10 -26.5t-26 -10.5h-115q-121 0 -193.5 71.5t-72.5 190.5v1153q0 14 10 25.5t26 11.5h78q16 0 26.5 -11t10.5 -26v-356h230q16 0 26 -11.5t10 -25.5v-68q0 -16 -10 -26t-26 -10h-230v-588q0 -111 26.5 -150t137.5 -39z" />
<glyph unicode="u" d="M657 358v701q0 14 11.5 25.5t25.5 11.5h78q14 0 25.5 -11.5t11.5 -25.5v-1022q0 -16 -11.5 -26.5t-25.5 -10.5h-78q-14 0 -25.5 10t-11.5 27v96q-84 -166 -241 -166q-127 0 -219.5 92.5t-92.5 251.5v748q0 14 11.5 25.5t25.5 11.5h80q16 0 26.5 -11.5t10.5 -25.5v-701 q0 -252 195 -252q59 0 102 26t63.5 68t29.5 80.5t9 77.5z" />
<glyph unicode="v" horiz-adv-x="890" d="M508 0h-123q-39 0 -53 45l-289 1006q-2 6 -2 14q0 31 33 31h71q33 0 41 -33l260 -911l259 911q8 33 40 33h72q33 0 33 -31q0 -8 -2 -14l-287 -1006q-14 -45 -53 -45z" />
<glyph unicode="w" horiz-adv-x="1474" d="M668 1096h139q33 0 43 -45l205 -934l223 934q10 45 39 45h67q39 0 39 -33q0 -8 -2 -14l-239 -1004q-10 -45 -43 -45h-158q-37 0 -43 45l-201 920l-200 -920q-6 -45 -43 -45h-158q-33 0 -43 45l-240 1004q-2 6 -2 14q0 33 39 33h68q29 0 39 -45l223 -934l205 934 q10 45 43 45z" />
<glyph unicode="x" horiz-adv-x="847" d="M424 471l-236 -438q-16 -33 -41 -33h-86q-14 0 -24 10t-10 25q0 4 2 8v4l286 535l-237 467q-4 4 -4 12q0 14 10 24.5t25 10.5h77q27 0 41 -31l197 -379l197 379q14 31 41 31h77q14 0 24.5 -10.5t10.5 -24.5q0 -8 -4 -12l-238 -467l287 -535v-4q2 -4 2 -8q0 -14 -10 -24.5 t-25 -10.5h-86q-25 0 -41 33z" />
<glyph unicode="y" horiz-adv-x="944" d="M299 -377h-86q-16 0 -26.5 10.5t-10.5 26.5v68q0 14 10.5 25t26.5 11h92q109 0 109 74q0 27 -15 78l-344 1135q-2 6 -2 12q0 33 31 33h86q31 0 39 -33l276 -963l252 963q8 33 39 33h84q31 0 31 -33q0 -6 -2 -12l-340 -1244q-31 -113 -91.5 -148.5t-158.5 -35.5z" />
<glyph unicode="z" horiz-adv-x="872" d="M141 1096h617q16 0 26.5 -11.5t10.5 -25.5v-62q0 -57 -19 -79l-540 -777h532q14 0 25.5 -11t11.5 -26v-67q0 -16 -11.5 -26.5t-25.5 -10.5h-664q-14 0 -25 10t-11 27v61q0 57 18 80l541 776h-486q-14 0 -25.5 10.5t-11.5 26.5v68q0 14 11.5 25.5t25.5 11.5z" />
<glyph unicode="{" horiz-adv-x="790" d="M647 1362q-96 0 -128 -35t-32 -135v-397q0 -242 -161 -269q162 -27 161 -270v-393q0 -100 32 -135t128 -35q16 0 26.5 -10.5t10.5 -26.5v-59q0 -14 -10 -25.5t-27 -11.5h-51q-104 0 -175 69.5t-71 175.5v476q0 98 -33.5 125.5t-115.5 27.5h-37q-16 0 -26.5 10.5 t-10.5 26.5v111q0 16 10 26t27 10h37q82 0 115.5 28t33.5 126v477q0 106 71 176t175 70h51q16 0 26.5 -10t10.5 -27v-59q0 -14 -10.5 -25.5t-26.5 -11.5z" />
<glyph unicode="|" horiz-adv-x="376" d="M264 1415v-1534q0 -16 -11 -26.5t-26 -10.5h-77q-14 0 -25.5 10.5t-11.5 26.5v1534q0 14 11 25.5t26 11.5h77q14 0 25.5 -11.5t11.5 -25.5z" />
<glyph unicode="}" horiz-adv-x="790" d="M143 1362q-16 0 -26.5 11t-10.5 26v59q0 16 10.5 26.5t26.5 10.5h52q104 0 174.5 -69.5t70.5 -176.5v-477q0 -98 34 -126t116 -28h37q16 0 26.5 -10t10.5 -26v-111q0 -16 -10.5 -26.5t-26.5 -10.5h-37q-82 0 -116 -27.5t-34 -125.5v-476q0 -106 -70.5 -175.5 t-174.5 -69.5h-52q-16 0 -26.5 11t-10.5 26v59q0 16 10.5 26.5t26.5 10.5q96 0 128 34.5t32 135.5v393q0 244 162 270q-162 27 -162 269v397q0 100 -32 135t-128 35z" />
<glyph unicode="~" horiz-adv-x="1173" d="M860 639q8 -2 37 -41t29 -45q0 -12 -17 -29q-96 -82 -204 -82q-51 0 -119 38t-117 38q-63 0 -139 -53q-10 -8 -19 -8q-16 0 -53 59q-10 16 -10 27q0 14 16 30q96 82 205 82q53 0 118.5 -37.5t117.5 -37.5q55 0 139 53q8 6 16 6z" />
<glyph unicode="&#xa1;" horiz-adv-x="534" d="M358 379v-342q0 -16 -11 -26.5t-25 -10.5h-107q-14 0 -25.5 10t-11.5 27v342l49 629q4 37 41 36.5t41 -36.5q49 -482 49 -629zM174 1323v94q0 16 11.5 26.5t25.5 10.5h113q16 0 26 -10t10 -27v-94q0 -16 -10 -26.5t-26 -10.5h-113q-14 0 -25.5 10.5t-11.5 26.5z" />
<glyph unicode="&#xa2;" horiz-adv-x="1138" d="M205 322v452q0 143 103.5 247.5t258.5 104.5q47 0 82 -8l41 152q6 23 31 26q12 0 20 -2l35 -8q29 -8 29 -29q0 -6 -2 -14l-45 -168q80 -47 127 -128t47 -173v-10q0 -14 -11.5 -25.5t-25.5 -11.5h-80q-16 0 -26.5 11.5t-10.5 25.5v10q0 90 -61 152l-215 -809 q27 -10 65 -11q90 0 150.5 63.5t60.5 152.5v20q0 14 10.5 25.5t26.5 11.5h80q14 0 25.5 -11.5t11.5 -25.5v-20q0 -143 -104.5 -248t-260.5 -105q-57 0 -102 15l-43 -168q-8 -27 -29 -27q-4 0 -20 4l-35 8q-31 8 -31 31q0 4 6 29l45 170q-153 105 -153 291zM567 989 q-88 0 -148.5 -63.5t-60.5 -151.5v-452q0 -78 43 -134l213 795q-24 6 -47 6z" />
<glyph unicode="&#xa3;" horiz-adv-x="1138" d="M860 1118v8q0 102 -56 159.5t-159 57.5q-223 0 -223 -229v-309h344q16 0 26.5 -11.5t10.5 -25.5v-74q0 -14 -10.5 -25.5t-26.5 -11.5h-344v-510h582q16 0 26 -10t10 -26v-74q0 -16 -10 -26.5t-26 -10.5h-869q-16 0 -26.5 10t-10.5 27v74q0 16 10.5 26t26.5 10 q47 0 74 7.5t38 34t13 50t2 83.5v335h-127q-16 0 -26.5 11.5t-10.5 25.5v74q0 14 10.5 25.5t26.5 11.5h127v309q0 176 105.5 278.5t277.5 102.5q168 0 271.5 -99.5t103.5 -269.5v-8q0 -16 -10.5 -26.5t-26.5 -10.5h-86q-16 0 -26.5 10.5t-10.5 26.5z" />
<glyph unicode="&#xa4;" horiz-adv-x="1343" d="M672 1120q-170 0 -287 -114.5t-117 -282.5t117 -283.5t287 -115.5t286.5 115.5t116.5 283.5t-116.5 282.5t-286.5 114.5zM672 1278q164 0 340 -111l125 123q12 12 26 13q20 0 33 -13l59 -55q14 -18 15 -31q0 -14 -15 -28l-125 -127q102 -168 103 -326q0 -156 -109 -336 l121 -123q14 -14 15 -28q0 -12 -15 -31l-59 -55q-12 -12 -33 -13q-14 0 -27 13l-125 122q-166 -106 -329.5 -106t-329.5 106l-125 -122q-12 -12 -27 -13q-20 0 -32 13l-60 55q-14 18 -14 31q0 14 14 28l121 123q-109 180 -108 336q0 158 102 326l-125 127q-14 14 -14 28 q0 12 14 31l59 55q12 12 33 13q14 0 27 -13l125 -123q176 111 340 111z" />
<glyph unicode="&#xa5;" horiz-adv-x="1138" d="M918 530h-267v-493q0 -16 -10 -26.5t-27 -10.5h-90q-16 0 -26.5 10t-10.5 27v493h-264q-14 0 -25.5 11.5t-11.5 25.5v74q0 14 11.5 25.5t25.5 11.5h264l-55 102h-209q-14 0 -25.5 11.5t-11.5 25.5v74q0 14 11.5 25.5t25.5 11.5h131l-254 477q-4 8 -4 14q0 33 35 33h84 q18 0 28.5 -8t26.5 -39l299 -543l299 543q16 31 26.5 39t29.5 8h84q35 0 34 -33q0 -6 -4 -14l-254 -477h134q16 0 26 -11.5t10 -25.5v-74q0 -14 -10 -25.5t-26 -11.5h-213l-54 -102h267q16 0 26 -11.5t10 -25.5v-74q0 -14 -10 -25.5t-26 -11.5z" />
<glyph unicode="&#xa6;" horiz-adv-x="567" d="M188 913v502q0 14 10.5 25.5t26.5 11.5h117q14 0 25.5 -11t11.5 -26v-500q0 -16 -10.5 -27t-26.5 -11h-117q-16 0 -26.5 10t-10.5 26zM188 37v502q0 14 10.5 25t26.5 11h117q14 0 25.5 -11t11.5 -25v-500q0 -16 -10.5 -27.5t-26.5 -11.5h-117q-16 0 -26.5 10.5 t-10.5 26.5z" />
<glyph unicode="&#xa7;" horiz-adv-x="989" d="M705 233q117 -111 116 -243q0 -129 -95 -213t-255 -84q-150 0 -249 83t-99 208v6q0 23 22 22h103q23 0 22 -22q2 -70 59.5 -108t141.5 -38q205 0 205 144q0 18 -3 33.5t-11 31.5l-15 28q-6 11 -24 29l-29 26q-10 9 -37 30l-39 30q-12 9 -48 33.5t-52 36.5 q-133 94 -144 103q-80 66 -115.5 126t-35.5 134q0 94 38 168.5t122 156.5q-115 109 -115 244q0 129 95 213t255 84q150 0 249 -83t99 -208v-6q0 -23 -22 -22h-103q-23 0 -22 22q-2 70 -59.5 107.5t-141.5 37.5q-205 0 -205 -143q0 -18 3 -33.5t12 -31.5l14 -28q6 -11 25 -29 l28 -26q10 -9 37 -30l39 -30q12 -9 48 -33.5t52 -36.5l144 -103q152 -100 151 -256q1 -180 -161 -330zM367 481l223 -159q51 41 80 84q53 72 53 141q0 88 -100 160l-224 159q-51 -41 -80 -84q-53 -72 -53 -141q1 -88 101 -160z" />
<glyph unicode="&#xa8;" horiz-adv-x="1030" d="M451 1415v-100q0 -16 -10.5 -26.5t-26.5 -10.5h-123q-16 0 -26.5 10t-10.5 27v100q0 14 10 25.5t27 11.5h123q16 0 26.5 -11.5t10.5 -25.5zM776 1415v-100q0 -16 -11 -26.5t-26 -10.5h-123q-14 0 -25 10t-11 27v100q0 14 11 25.5t25 11.5h123q14 0 25.5 -11.5t11.5 -25.5 z" />
<glyph unicode="&#xa9;" horiz-adv-x="1759" d="M1190 487v-12q0 -117 -91 -191.5t-212 -74.5q-119 0 -210 79t-91 195v488q0 117 91 196.5t210 79.5q121 0 212 -75.5t91 -192.5v-10q0 -16 -11.5 -28.5t-29.5 -12.5h-51q-16 0 -28.5 12t-12.5 29v10q0 61 -52.5 102t-117.5 41q-63 0 -115.5 -44t-52.5 -107v-488 q0 -61 52 -105t116 -44q66 0 118 41t52 100v12q0 16 12 29.5t29 13.5h51q18 0 29.5 -12.5t11.5 -30.5zM1636 723q0 -313 -221 -535.5t-532 -222.5q-315 0 -537.5 222.5t-222.5 535.5q0 311 222 533.5t538 222.5q311 0 532 -222.5t221 -533.5zM1556 723q0 281 -196.5 477.5 t-476.5 196.5q-283 0 -480.5 -196.5t-197.5 -477.5q0 -283 197.5 -479.5t480.5 -196.5q281 0 477 196.5t196 479.5z" />
<glyph unicode="&#xaa;" horiz-adv-x="661" d="M457 981v127q-174 -74 -216 -101.5t-42 -82.5q0 -102 104 -103q59 0 106.5 46t47.5 114zM584 1266v-496q0 -10 -9.5 -23.5t-27.5 -13.5h-55q-14 0 -24.5 11.5t-10.5 25.5v49q-61 -102 -183 -102q-106 0 -157 56t-51 151q0 80 46 127t148 90q76 31 143 63q33 14 43.5 25.5 t10.5 36.5q0 109 -123 108q-47 0 -75 -24.5t-32 -45t-4 -38.5q0 -10 -9 -23.5t-28 -13.5h-55q-14 0 -24.5 11t-10.5 26q0 96 63.5 162.5t174.5 66.5q117 0 183.5 -61.5t66.5 -167.5z" />
<glyph unicode="&#xab;" horiz-adv-x="1105" d="M510 764l-250 -229l250 -230q41 -41 41 -61v-84q0 -14 -11.5 -24.5t-23.5 -10.5q-20 0 -35 12l-340 320q-29 25 -28 49v57q0 25 28 49l340 320q14 12 35 12q12 0 23.5 -10t11.5 -25v-84q0 -20 -41 -61zM922 764l-250 -229l250 -230q41 -41 41 -61v-84q0 -14 -11.5 -24.5 t-23.5 -10.5q-18 0 -35 12l-340 320q-29 25 -29 49v57q0 25 29 49l340 320q16 12 35 12q12 0 23.5 -10t11.5 -25v-84q0 -20 -41 -61z" />
<glyph unicode="&#xac;" horiz-adv-x="1173" d="M854 373v223h-657q-16 0 -26.5 11t-10.5 26v74q0 14 10 25t27 11h780q14 0 25.5 -11t11.5 -25v-334q0 -16 -11.5 -26.5t-25.5 -10.5h-86q-14 0 -25.5 10.5t-11.5 26.5z" />
<glyph unicode="&#xad;" horiz-adv-x="927" d="M150 623h628q16 0 26.5 -10.5t10.5 -26.5v-74q0 -16 -10 -26.5t-27 -10.5h-628q-14 0 -25.5 10.5t-11.5 26.5v74q0 16 11.5 26.5t25.5 10.5z" />
<glyph unicode="&#xae;" horiz-adv-x="1759" d="M938 1120h-205v-323h197q66 0 95.5 30.5t29.5 96.5v86q0 59 -28 84.5t-89 25.5zM635 1243h352q86 0 142.5 -57.5t56.5 -141.5v-145q0 -125 -80 -168q53 -25 69.5 -67.5t16.5 -114.5v-297q0 -16 -12.5 -28.5t-28.5 -12.5h-53q-16 0 -29.5 12.5t-13.5 28.5v313q0 55 -28 79 t-91 24h-203v-416q0 -16 -11 -28.5t-28 -12.5h-59q-18 0 -29.5 12.5t-11.5 28.5v950q0 16 11.5 28.5t29.5 12.5zM1636 723q0 -313 -221 -535.5t-532 -222.5q-315 0 -537.5 222.5t-222.5 535.5q0 311 222 533.5t538 222.5q311 0 532 -222.5t221 -533.5zM1556 723 q0 281 -196.5 477.5t-476.5 196.5q-283 0 -480.5 -196.5t-197.5 -477.5q0 -283 197.5 -479.5t480.5 -196.5q281 0 477 196.5t196 479.5z" />
<glyph unicode="&#xaf;" horiz-adv-x="890" d="M160 1423h571q14 0 25.5 -11t11.5 -26v-55q0 -16 -11.5 -26.5t-25.5 -10.5h-571q-16 0 -26.5 10.5t-10.5 26.5v55q0 14 10.5 25.5t26.5 11.5z" />
<glyph unicode="&#xb0;" horiz-adv-x="753" d="M662 1206q0 -117 -84 -198.5t-201 -81.5t-201 82t-84 198q0 119 84 202t201 83t201 -83t84 -202zM565 1206q0 78 -55 132.5t-133 54.5q-76 0 -129 -54.5t-53 -132.5q0 -76 53 -130t129 -54q78 0 133 54t55 130z" />
<glyph unicode="&#xb1;" horiz-adv-x="1173" d="M645 553v-406h377q14 0 25.5 -10t11.5 -26v-74q0 -16 -11.5 -26.5t-25.5 -10.5h-893q-14 0 -25.5 10t-11.5 27v74q0 16 11.5 26t25.5 10h360v406h-360q-14 0 -25.5 10t-11.5 27v74q0 16 11.5 26t25.5 10h360v430q0 16 11.5 26.5t25.5 10.5h82q14 0 25.5 -10t11.5 -27 v-430h377q14 0 25.5 -10t11.5 -26v-74q0 -16 -11.5 -26.5t-25.5 -10.5h-377z" />
<glyph unicode="&#xb2;" horiz-adv-x="681" d="M115 760l307 385q45 57 45 94q0 53 -34 87t-89 34q-49 0 -78.5 -34t-32.5 -87q0 -16 -11 -28.5t-27 -12.5h-48q-37 0 -36 45q0 94 62.5 162t171 68t176 -65t67.5 -177q0 -72 -53 -139l-295 -365h315q39 0 39 -39v-33q0 -39 -39 -39h-420q-39 0 -39 39v41q1 41 19 64z" />
<glyph unicode="&#xb3;" horiz-adv-x="692" d="M92 844v12q0 14 10.5 25.5t24.5 11.5h49q14 0 23.5 -11.5t9.5 -25.5v-8q0 -59 38 -98t99.5 -39t98 33.5t36.5 95.5v45q0 102 -94 102h-45q-14 0 -25.5 10.5t-11.5 24.5v51q0 16 11.5 27.5t25.5 11.5h39q84 0 84 96v13q0 68 -26.5 101.5t-92.5 33.5q-125 0 -125 -129 q0 -31 -35 -31h-39q-14 0 -26 11.5t-12 25.5q0 111 62 175.5t175 64.5q117 0 178.5 -65t61.5 -187q0 -59 -12.5 -96.5t-53.5 -73.5q51 -31 65.5 -77t14.5 -120v-18q0 -113 -72.5 -176.5t-181.5 -63.5q-104 0 -179 68.5t-75 179.5z" />
<glyph unicode="&#xb4;" horiz-adv-x="641" d="M446 1473l-112 -166q-25 -33 -58 -33h-49q-37 0 -37 33q0 12 7 22l63 144q20 43 55 43h101q14 0 24.5 -9.5t10.5 -21.5q-1 -4 -5 -12z" />
<glyph unicode="&#xb5;" horiz-adv-x="985" d="M692 37v82q-33 -66 -98.5 -109t-147.5 -43q-76 0 -153 45v-352q0 -16 -11.5 -26.5t-25.5 -10.5h-74q-14 0 -25.5 10.5t-11.5 26.5v1399q0 14 11.5 25.5t25.5 11.5h74q14 0 25.5 -11.5t11.5 -25.5v-744q0 -92 56.5 -150.5t146.5 -58.5q84 0 140 62.5t56 146.5v744 q0 14 10.5 25.5t26.5 11.5h74q16 0 26.5 -11.5t10.5 -25.5v-1022q0 -16 -10.5 -26.5t-26.5 -10.5h-74q-16 0 -26.5 10.5t-10.5 26.5z" />
<glyph unicode="&#xb6;" horiz-adv-x="1060" d="M397 1452h494q14 0 25.5 -11t11.5 -26v-1521q0 -16 -11.5 -26.5t-25.5 -10.5h-78q-14 0 -25.5 10t-11.5 27v1378h-129v-1378q0 -16 -10 -26.5t-27 -10.5h-78q-16 0 -26 10t-10 27v843h-99q-109 0 -191.5 77t-82.5 192v180q0 115 81.5 190.5t192.5 75.5z" />
<glyph unicode="&#xb7;" horiz-adv-x="403" d="M311 602v-104q0 -16 -13 -29.5t-32 -13.5h-129q-18 0 -31.5 13t-13.5 30v104q0 18 13.5 30.5t31.5 12.5h129q18 0 31.5 -12.5t13.5 -30.5z" />
<glyph unicode="&#xb8;" horiz-adv-x="641" d="M307 -356q37 0 54.5 24.5t17.5 61.5q0 84 -76 84q-10 0 -16 -2q-14 -4 -27.5 -15.5t-26.5 -11.5q-10 0 -22 4l-31 8q-20 6 -20 27q0 8 4 20l61 203q6 20 31 21q6 0 10 -2l29 -11q23 -4 22 -28q0 -6 -2 -11l-36 -122q33 12 59 12q57 0 113.5 -44t56.5 -132 q0 -74 -50 -133.5t-157 -59.5q-72 0 -147 55q-20 12 -21 27q0 16 10 27l27 26q14 14 25 15q6 0 18 -9q47 -34 94 -34z" />
<glyph unicode="&#xb9;" horiz-adv-x="440" d="M231 1243h-104q-14 0 -24.5 10.5t-10.5 24.5v47q0 33 35 33h8q41 2 60.5 19.5t29.5 56.5q8 23 33 22h57q14 0 23.5 -10t9.5 -25v-772q0 -14 -9 -24.5t-24 -10.5h-51q-14 0 -23.5 10.5t-9.5 24.5v594z" />
<glyph unicode="&#xba;" horiz-adv-x="649" d="M571 1262v-330q0 -94 -71.5 -165t-174 -71t-175 71t-72.5 165v330q0 94 72.5 164.5t175 70.5t174 -70.5t71.5 -164.5zM446 944v305q0 47 -36.5 84t-83.5 37q-49 0 -85 -37t-36 -84v-305q0 -49 35.5 -85t85.5 -36q47 0 83.5 36t36.5 85z" />
<glyph unicode="&#xbb;" horiz-adv-x="1105" d="M846 535l-250 229q-41 41 -41 61v84q0 14 11.5 24.5t23.5 10.5q20 0 35 -12l340 -320q29 -25 28 -49v-57q0 -25 -28 -49l-340 -320q-14 -12 -35 -12q-12 0 -23.5 10t-11.5 25v84q0 20 41 61zM434 535l-250 229q-41 41 -41 61v84q0 14 11.5 24.5t23.5 10.5q18 0 35 -12 l340 -320q29 -25 29 -49v-57q0 -25 -29 -49l-340 -320q-16 -12 -35 -12q-12 0 -23.5 10t-11.5 25v84q0 20 41 61z" />
<glyph unicode="&#xbc;" horiz-adv-x="1437" d="M252 1243h-105q-14 0 -24 10.5t-10 24.5v47q0 33 34 33h9q41 2 60.5 19.5t29.5 56.5q8 23 33 22h57q14 0 23.5 -10t9.5 -25v-772q0 -14 -9.5 -24.5t-23.5 -10.5h-51q-14 0 -23.5 10.5t-9.5 24.5v594zM1024 1470q0 -4 -4 -16l-553 -1442q-14 -43 -49 -43h-62q-29 0 -28 29 q0 4 4 16l553 1442q14 41 51 41h61q27 0 27 -27zM842 330l217 485q10 23 43 23h133q14 0 23.5 -10.5t9.5 -24.5v-481h53q14 0 24.5 -9.5t10.5 -23.5v-45q0 -14 -10.5 -23.5t-24.5 -9.5h-53v-176q0 -14 -9.5 -24.5t-23.5 -10.5h-51q-14 0 -23.5 10t-9.5 25v176h-295 q-25 0 -25 27v49q1 16 11 43zM1151 760l-190 -438h190v438z" />
<glyph unicode="&#xbd;" horiz-adv-x="1482" d="M252 1241h-105q-14 0 -24 10.5t-10 24.5v47q0 33 34 33h9q41 2 60.5 19.5t29.5 56.5q8 23 33 22h57q14 0 23.5 -10t9.5 -25v-768q0 -14 -9.5 -24.5t-23.5 -10.5h-51q-14 0 -23.5 10.5t-9.5 24.5v590zM1034 1470q0 -4 -4 -16l-553 -1442q-14 -43 -49 -43h-61q-29 0 -29 29 q0 4 4 16l553 1442q14 41 51 41h62q26 0 26 -27zM911 145l308 385q45 57 45 95q0 53 -34 86.5t-89 33.5q-49 0 -79 -33.5t-32 -86.5q0 -16 -11 -28.5t-28 -12.5h-47q-37 0 -37 45q0 94 62.5 161.5t171 67.5t176 -64.5t67.5 -177.5q0 -72 -53 -139l-295 -364h316q39 0 39 -39 v-33q0 -39 -39 -39h-420q-39 0 -39 39v41q0 40 18 63z" />
<glyph unicode="&#xbe;" horiz-adv-x="1558" d="M1188 1470q0 -4 -4 -16l-553 -1442q-14 -43 -49 -43h-62q-29 0 -28 29q0 4 4 16l553 1442q14 41 51 41h61q27 0 27 -27zM109 844v12q0 14 10 25.5t24 11.5h50q14 0 23 -11.5t9 -25.5v-8q0 -59 38 -98t99.5 -39t98.5 33.5t37 95.5v45q0 102 -95 102h-45q-14 0 -25 10.5 t-11 24.5v51q0 16 11 27.5t25 11.5h39q84 0 84 96v13q0 68 -26.5 101.5t-92.5 33.5q-125 0 -124 -129q0 -31 -35 -31h-39q-14 0 -26.5 11.5t-12.5 25.5q0 111 62.5 175.5t174.5 64.5q117 0 178.5 -65t61.5 -187q0 -59 -12 -96.5t-53 -73.5q51 -31 65 -77t14 -120v-18 q0 -113 -72.5 -176.5t-181.5 -63.5q-104 0 -178.5 68.5t-74.5 179.5zM963 330l217 485q12 23 43 23h133q14 0 23.5 -10.5t9.5 -24.5v-481h53q14 0 24.5 -9.5t10.5 -23.5v-45q0 -14 -10.5 -23.5t-24.5 -9.5h-53v-176q0 -14 -9.5 -24.5t-23.5 -10.5h-51q-14 0 -23.5 10 t-9.5 25v176h-295q-25 0 -25 27v49q1 16 11 43zM1272 760l-191 -438h191v438z" />
<glyph unicode="&#xbf;" horiz-adv-x="978" d="M621 1059v-78q0 -113 -72 -195l-219 -247q-61 -70 -62 -142q0 -123 52.5 -184t166.5 -61q109 0 166.5 64.5t57.5 170.5v8q0 14 11 25.5t26 11.5h88q16 0 26 -11t10 -26v-24q0 -162 -108.5 -266.5t-274.5 -104.5q-164 0 -273.5 100.5t-109.5 280.5q0 143 66 215l217 235 q41 45 51.5 74t10.5 105v49q0 14 10 25.5t26 11.5h97q14 0 25.5 -11.5t11.5 -25.5zM440 1341v117q0 16 11.5 26.5t25.5 10.5h117q16 0 26.5 -10t10.5 -27v-117q0 -14 -10.5 -25t-26.5 -11h-117q-14 0 -25.5 11t-11.5 25z" />
<glyph unicode="&#xc0;" horiz-adv-x="1081" d="M627 1452q25 0 32 -29l369 -1376q2 -10 2 -14q0 -14 -12 -23.5t-29 -9.5h-84q-25 0 -33 35l-81 309h-500l-82 -309q-8 -35 -33 -35h-84q-16 0 -28.5 9t-12.5 24q0 6 2 14l369 1376q8 29 33 29h172zM752 496l-211 796l-211 -796h422zM498 1620l-113 166q-4 8 -4 12 q0 12 10 21.5t25 9.5h100q35 0 55 -43l64 -144q6 -8 6 -22q0 -33 -37 -33h-49q-32 0 -57 33z" />
<glyph unicode="&#xc1;" horiz-adv-x="1081" d="M627 1452q25 0 32 -29l369 -1376q2 -10 2 -14q0 -14 -12 -23.5t-29 -9.5h-84q-25 0 -33 35l-81 309h-500l-82 -309q-8 -35 -33 -35h-84q-16 0 -28.5 9t-12.5 24q0 6 2 14l369 1376q8 29 33 29h172zM752 496l-211 796l-211 -796h422zM672 1790l-113 -166q-25 -33 -57 -33 h-49q-37 0 -37 33q0 14 6 23l63 143q20 43 56 43h100q14 0 24.5 -9t10.5 -22q0 -4 -4 -12z" />
<glyph unicode="&#xc2;" horiz-adv-x="1081" d="M627 1452q25 0 32 -29l369 -1376q2 -10 2 -14q0 -14 -12 -23.5t-29 -9.5h-84q-25 0 -33 35l-81 309h-500l-82 -309q-8 -35 -33 -35h-84q-16 0 -28.5 9t-12.5 24q0 6 2 14l369 1376q8 29 33 29h172zM752 496l-211 796l-211 -796h422zM588 1833q23 0 47 -33l127 -190 q6 -8 6 -19q0 -14 -25 -14h-86q-14 0 -30 18l-86 109l-86 -109q-16 -18 -31 -18h-86q-25 0 -25 14q0 10 6 19l127 190q25 33 48 33h94z" />
<glyph unicode="&#xc3;" horiz-adv-x="1081" d="M627 1452q25 0 32 -29l369 -1376q2 -10 2 -14q0 -14 -12 -23.5t-29 -9.5h-84q-25 0 -33 35l-81 309h-500l-82 -309q-8 -35 -33 -35h-84q-16 0 -28.5 9t-12.5 24q0 6 2 14l369 1376q8 29 33 29h172zM752 496l-211 796l-211 -796h422zM530 1640q-53 29 -98 29 q-20 0 -41.5 -8t-42.5 -23l-20 -12q-6 -6 -19 -6q-16 0 -63 74q-8 12 -8 18q0 10 22 23q84 61 172 61q35 0 103 -29q72 -29 102 -28q29 0 104 47l19 6q16 0 63 -74q6 -8 6 -18q0 -6 -20.5 -24.5t-71.5 -41t-100 -22.5q-35 -1 -107 28z" />
<glyph unicode="&#xc4;" horiz-adv-x="1081" d="M627 1452q25 0 32 -29l369 -1376q2 -10 2 -14q0 -14 -12 -23.5t-29 -9.5h-84q-25 0 -33 35l-81 309h-500l-82 -309q-8 -35 -33 -35h-84q-16 0 -28.5 9t-12.5 24q0 6 2 14l369 1376q8 29 33 29h172zM752 496l-211 796l-211 -796h422zM479 1757v-100q0 -14 -10 -25.5 t-27 -11.5h-123q-16 0 -26 11t-10 26v100q0 16 10 26.5t26 10.5h123q16 0 26.5 -10.5t10.5 -26.5zM805 1757v-100q0 -14 -11.5 -25.5t-25.5 -11.5h-123q-14 0 -25.5 11t-11.5 26v100q0 16 11.5 26.5t25.5 10.5h123q14 0 25.5 -10.5t11.5 -26.5z" />
<glyph unicode="&#xc5;" horiz-adv-x="1081" d="M51 33q0 6 2 14l367 1370q-90 63 -90 172q0 82 62.5 144.5t146.5 62.5q86 0 148.5 -61.5t62.5 -145.5q0 -104 -88 -172l366 -1370q2 -10 2 -14q0 -14 -12 -23.5t-29 -9.5h-84q-25 0 -33 35l-81 309h-500l-82 -309q-8 -35 -33 -35h-84q-16 0 -28.5 9.5t-12.5 23.5z M752 496l-211 796l-211 -796h422zM668 1589q0 47 -36 87t-93 40q-55 0 -90 -40t-35 -87q0 -49 34.5 -90t90.5 -41q57 0 93 41t36 90z" />
<glyph unicode="&#xc6;" horiz-adv-x="1490" d="M711 494v811l-318 -811h318zM870 147h512q14 0 25.5 -10t11.5 -26v-74q0 -16 -11 -26.5t-26 -10.5h-626q-18 0 -31.5 13.5t-13.5 31.5v297h-377l-117 -299q-16 -43 -51 -43h-78q-16 0 -27.5 10t-11.5 25q0 4 4 12l555 1380q10 25 37 25h729q14 0 25.5 -11t11.5 -26v-74 q0 -14 -11 -25t-26 -11h-504v-453h418q14 0 25.5 -10.5t11.5 -26.5v-74q0 -16 -11 -26t-26 -10h-418v-558z" />
<glyph unicode="&#xc7;" horiz-adv-x="1013" d="M918 1096v-23q0 -16 -10.5 -26.5t-26.5 -10.5h-95q-16 0 -26 10.5t-10 26.5v23q0 111 -64.5 179t-169 68t-169 -68.5t-64.5 -178.5v-744q0 -111 64.5 -178.5t169 -67.5t169 68t64.5 178v27q0 14 10 25.5t26 11.5h95q16 0 26.5 -11.5t10.5 -25.5v-27q0 -174 -112 -283.5 t-280 -113.5l-18 -61q33 12 59 12q57 0 113.5 -44t56.5 -132q0 -74 -50 -133.5t-157 -59.5q-72 0 -147 55q-20 12 -21 27q0 16 11 27l26 26q14 14 25 15q6 0 18 -9q47 -35 95 -34q37 0 54 24.5t17 61.5q0 45 -22.5 64.5t-50.5 19.5q-14 0 -19 -2q-14 -4 -27.5 -15.5 t-25.5 -11.5q-10 0 -23 4l-30 8q-20 6 -21 27q0 6 2 12l37 127q-139 27 -226 130.5t-87 258.5v744q0 178 114.5 288.5t286.5 110.5t287 -110.5t115 -288.5z" />
<glyph unicode="&#xc8;" d="M809 1305h-520v-453h434q14 0 25.5 -10.5t11.5 -26.5v-74q0 -16 -11.5 -26t-25.5 -10h-434v-558h528q14 0 25.5 -10t11.5 -26v-74q0 -16 -11.5 -26.5t-25.5 -10.5h-655q-14 0 -25.5 10t-11.5 27v1378q0 14 11 25.5t26 11.5h647q14 0 25.5 -11t11.5 -26v-74 q0 -14 -11.5 -25t-25.5 -11zM442 1618l-112 166q-4 8 -4 12q0 12 10 21.5t24 9.5h101q35 0 55 -43l64 -144q6 -10 6 -22q0 -33 -37 -33h-49q-33 0 -58 33z" />
<glyph unicode="&#xc9;" d="M809 1305h-520v-453h434q14 0 25.5 -10.5t11.5 -26.5v-74q0 -16 -11.5 -26t-25.5 -10h-434v-558h528q14 0 25.5 -10t11.5 -26v-74q0 -16 -11.5 -26.5t-25.5 -10.5h-655q-14 0 -25.5 10t-11.5 27v1378q0 14 11 25.5t26 11.5h647q14 0 25.5 -11t11.5 -26v-74 q0 -14 -11.5 -25t-25.5 -11zM627 1784l-113 -166q-25 -33 -57 -33h-49q-37 0 -37 33q0 12 6 22l63 144q20 43 56 43h100q14 0 24.5 -9.5t10.5 -21.5q0 -4 -4 -12z" />
<glyph unicode="&#xca;" d="M809 1305h-520v-453h434q14 0 25.5 -10.5t11.5 -26.5v-74q0 -16 -11.5 -26t-25.5 -10h-434v-558h528q14 0 25.5 -10t11.5 -26v-74q0 -16 -11.5 -26.5t-25.5 -10.5h-655q-14 0 -25.5 10t-11.5 27v1378q0 14 11 25.5t26 11.5h647q14 0 25.5 -11t11.5 -26v-74 q0 -14 -11.5 -25t-25.5 -11zM516 1847q23 0 47 -32l127 -191q6 -10 6 -18q0 -14 -24 -15h-86q-16 0 -31 19l-86 108l-86 -108q-14 -18 -31 -19h-86q-25 0 -24 15q0 8 6 18l127 191q25 33 47 32h94z" />
<glyph unicode="&#xcb;" d="M809 1305h-520v-453h434q14 0 25.5 -10.5t11.5 -26.5v-74q0 -16 -11.5 -26t-25.5 -10h-434v-558h528q14 0 25.5 -10t11.5 -26v-74q0 -16 -11.5 -26.5t-25.5 -10.5h-655q-14 0 -25.5 10t-11.5 27v1378q0 14 11 25.5t26 11.5h647q14 0 25.5 -11t11.5 -26v-74 q0 -14 -11.5 -25t-25.5 -11zM416 1755v-100q0 -16 -11.5 -26.5t-25.5 -10.5h-123q-14 0 -25.5 10t-11.5 27v100q0 14 11.5 25.5t25.5 11.5h123q14 0 25.5 -11.5t11.5 -25.5zM741 1755v-100q0 -16 -10 -26.5t-26 -10.5h-123q-16 0 -26.5 10t-10.5 27v100q0 14 10 25.5 t27 11.5h123q16 0 26 -11.5t10 -25.5z" />
<glyph unicode="&#xcc;" horiz-adv-x="421" d="M287 1415v-1378q0 -16 -10.5 -26.5t-26.5 -10.5h-90q-16 0 -26.5 10t-10.5 27v1378q0 14 10 25.5t27 11.5h90q16 0 26.5 -11.5t10.5 -25.5zM137 1618l-112 166q-4 8 -5 12q0 12 10.5 21.5t24.5 9.5h101q35 0 55 -43l63 -144q6 -10 7 -22q0 -33 -37 -33h-49q-33 0 -58 33z " />
<glyph unicode="&#xcd;" horiz-adv-x="436" d="M299 1415v-1378q0 -16 -10 -26.5t-27 -10.5h-90q-16 0 -26.5 10t-10.5 27v1378q0 14 10.5 25.5t26.5 11.5h90q16 0 26.5 -11.5t10.5 -25.5zM412 1784l-113 -166q-25 -33 -57 -33h-49q-37 0 -37 33q0 12 6 22l63 144q20 43 56 43h100q14 0 24.5 -9.5t10.5 -21.5 q0 -4 -4 -12z" />
<glyph unicode="&#xce;" horiz-adv-x="495" d="M336 1415v-1378q0 -16 -10.5 -26.5t-26.5 -10.5h-90q-16 0 -26.5 10t-10.5 27v1378q0 14 10.5 25.5t26.5 11.5h90q16 0 26.5 -11.5t10.5 -25.5zM295 1831q23 0 47 -33l127 -190q6 -10 6 -19q0 -14 -24 -14h-86q-16 0 -31 18l-86 109l-86 -109q-14 -18 -31 -18h-86 q-25 0 -25 14q0 8 7 19l127 190q25 33 47 33h94z" />
<glyph unicode="&#xcf;" horiz-adv-x="509" d="M334 1415v-1378q0 -16 -11.5 -26.5t-25.5 -10.5h-90q-14 0 -25.5 10t-11.5 27v1378q0 14 11.5 25.5t25.5 11.5h90q14 0 25.5 -11.5t11.5 -25.5zM190 1757v-100q0 -14 -11 -25.5t-25 -11.5h-123q-14 0 -25.5 11t-11.5 26v100q0 16 11 26.5t26 10.5h123q14 0 25 -10.5 t11 -26.5zM516 1757v-100q0 -14 -10 -25.5t-27 -11.5h-123q-16 0 -26.5 11t-10.5 26v100q0 16 10.5 26.5t26.5 10.5h123q16 0 26.5 -10.5t10.5 -26.5z" />
<glyph unicode="&#xd0;" horiz-adv-x="1026" d="M137 596h-137q-16 0 -26.5 11t-10.5 26v74q0 14 10.5 25t26.5 11h137v672q0 14 11.5 25.5t25.5 11.5h461q119 0 198.5 -82t79.5 -219v-850q0 -137 -79.5 -219t-198.5 -82h-461q-14 0 -25.5 10t-11.5 27v559zM301 743h164q14 0 25.5 -11t11.5 -25v-74q0 -14 -11.5 -25.5 t-25.5 -11.5h-164v-457h287q170 0 170 189v796q0 188 -170 189h-287v-570z" />
<glyph unicode="&#xd1;" horiz-adv-x="1116" d="M117 37v1378q0 14 11 25.5t26 11.5h108q31 0 47 -35l527 -1110v1108q0 14 10 25.5t26 11.5h91q16 0 26 -11t10 -26v-1378q0 -16 -10 -26.5t-26 -10.5h-109q-31 0 -47 35l-526 1110v-1108q0 -16 -11.5 -26.5t-25.5 -10.5h-90q-14 0 -25.5 10.5t-11.5 26.5zM600 1640 q-53 29 -98 29q-20 0 -42 -8t-42 -23l-21 -12q-6 -6 -18 -6q-16 0 -64 74q-8 12 -8 18q0 10 23 23q84 61 172 61q35 0 102 -29q72 -29 103 -28q29 0 104 47l18 6q16 0 64 -74q6 -8 6 -18q0 -6 -20.5 -24.5t-71.5 -41t-100 -22.5q-35 -1 -107 28z" />
<glyph unicode="&#xd2;" horiz-adv-x="1024" d="M512 113q104 0 168.5 67.5t64.5 177.5v738q0 111 -64.5 179t-168.5 68t-168.5 -68.5t-64.5 -178.5v-738q0 -111 64.5 -178t168.5 -67zM512 1495q172 0 286.5 -110.5t114.5 -288.5v-738q0 -178 -114.5 -287.5t-286.5 -109.5t-286.5 109.5t-114.5 287.5v738 q0 178 114.5 288.5t286.5 110.5zM492 1618l-113 166q-4 8 -4 12q0 12 10 21.5t25 9.5h100q35 0 55 -43l64 -144q6 -10 6 -22q0 -33 -37 -33h-49q-32 0 -57 33z" />
<glyph unicode="&#xd3;" horiz-adv-x="1024" d="M512 113q104 0 168.5 67.5t64.5 177.5v738q0 111 -64.5 179t-168.5 68t-168.5 -68.5t-64.5 -178.5v-738q0 -111 64.5 -178t168.5 -67zM512 1495q172 0 286.5 -110.5t114.5 -288.5v-738q0 -178 -114.5 -287.5t-286.5 -109.5t-286.5 109.5t-114.5 287.5v738 q0 178 114.5 288.5t286.5 110.5zM672 1786l-113 -166q-25 -33 -57 -33h-49q-37 0 -37 33q0 14 6 22l63 144q20 43 56 43h100q14 0 24.5 -9.5t10.5 -21.5q0 -4 -4 -12z" />
<glyph unicode="&#xd4;" horiz-adv-x="1024" d="M512 1495q172 0 286.5 -110.5t114.5 -288.5v-738q0 -178 -114.5 -287.5t-286.5 -109.5t-286.5 109.5t-114.5 287.5v738q0 178 114.5 288.5t286.5 110.5zM512 113q104 0 168.5 67.5t64.5 177.5v738q0 111 -64.5 179t-168.5 68t-168.5 -68.5t-64.5 -178.5v-738 q0 -111 64.5 -178t168.5 -67zM559 1845q23 0 47 -33l127 -190q6 -8 6 -18q0 -14 -24 -15h-86q-14 0 -31 19l-86 108l-86 -108q-16 -18 -31 -19h-86q-25 0 -24 15q0 10 6 18l127 190q25 33 47 33h94z" />
<glyph unicode="&#xd5;" horiz-adv-x="1024" d="M512 113q104 0 168.5 67.5t64.5 177.5v738q0 111 -64.5 179t-168.5 68t-168.5 -68.5t-64.5 -178.5v-738q0 -111 64.5 -178t168.5 -67zM512 1495q172 0 286.5 -110.5t114.5 -288.5v-738q0 -178 -114.5 -287.5t-286.5 -109.5t-286.5 109.5t-114.5 287.5v738 q0 178 114.5 288.5t286.5 110.5zM506 1642q-53 29 -98 29q-20 0 -42 -8t-42 -21l-21 -14q-6 -6 -18 -6q-16 0 -64 74q-8 12 -8 18q0 10 23 23q84 61 172 61q35 0 102 -29q72 -29 102 -28q29 0 105 47l18 6q16 0 64 -74q6 -8 6 -18q0 -6 -20.5 -24.5t-71.5 -41t-101 -22.5 q-34 -1 -106 28z" />
<glyph unicode="&#xd6;" horiz-adv-x="1024" d="M512 113q104 0 168.5 67.5t64.5 177.5v738q0 111 -64.5 179t-168.5 68t-168.5 -68.5t-64.5 -178.5v-738q0 -111 64.5 -178t168.5 -67zM512 1495q172 0 286.5 -110.5t114.5 -288.5v-738q0 -178 -114.5 -287.5t-286.5 -109.5t-286.5 109.5t-114.5 287.5v738 q0 178 114.5 288.5t286.5 110.5zM449 1759v-100q0 -16 -11.5 -26.5t-25.5 -10.5h-123q-14 0 -25.5 10t-11.5 27v100q0 14 11 25.5t26 11.5h123q14 0 25.5 -11.5t11.5 -25.5zM774 1759v-100q0 -16 -10 -26.5t-27 -10.5h-123q-16 0 -26 10t-10 27v100q0 14 10 25.5t26 11.5 h123q16 0 26.5 -11.5t10.5 -25.5z" />
<glyph unicode="&#xd7;" horiz-adv-x="1173" d="M483 549l-245 244q-8 8 -9 26q0 16 9 27l53 53q8 8 24.5 8t26.5 -10l246 -244l237 238q10 10 29 10q12 0 27 -10l51 -53q10 -10 10 -25q0 -16 -10 -27l-240 -239l244 -244q8 -10 8 -24q0 -16 -10 -27l-53 -53q-10 -10 -23 -11q-16 0 -27 11l-245 243l-242 -241 q-10 -10 -27 -11q-12 0 -26 11l-51 51q-10 14 -11 27q0 16 11 26z" />
<glyph unicode="&#xd8;" horiz-adv-x="1071" d="M545 1491q170 0 282 -109l58 99q10 20 28 20q12 0 21 -6l70 -39q16 -8 16 -31q0 -12 -4 -18l-96 -166q27 -74 26 -149v-738q0 -178 -114.5 -287.5t-286.5 -109.5q-174 0 -291 113l-45 -82q-8 -18 -31 -19q-12 0 -20 4l-68 39q-18 8 -18 31q0 6 4 18l88 156 q-20 68 -21 137v738q0 178 115 288.5t287 110.5zM545 113q104 0 168.5 67.5t64.5 177.5v631l-436 -766q62 -110 203 -110zM545 1343q-104 0 -169 -68.5t-65 -178.5v-621l432 758q-63 110 -198 110z" />
<glyph unicode="&#xd9;" horiz-adv-x="1032" d="M115 358v1057q0 14 10 25.5t27 11.5h94q16 0 26.5 -11t10.5 -26v-1057q0 -111 64.5 -178t169 -67t169 67.5t64.5 177.5v1057q0 14 10 25.5t26 11.5h95q16 0 26.5 -11t10.5 -26v-1057q0 -178 -115 -287.5t-287 -109.5t-286.5 109.5t-114.5 287.5zM481 1616l-112 166 q-4 8 -4 12q0 12 10 21.5t24 9.5h101q35 0 55 -43l63 -144q6 -8 7 -22q0 -33 -37 -33h-49q-33 0 -58 33z" />
<glyph unicode="&#xda;" horiz-adv-x="1032" d="M115 358v1057q0 14 10 25.5t27 11.5h94q16 0 26.5 -11t10.5 -26v-1057q0 -111 64.5 -178t169 -67t169 67.5t64.5 177.5v1057q0 14 10 25.5t26 11.5h95q16 0 26.5 -11t10.5 -26v-1057q0 -178 -115 -287.5t-287 -109.5t-286.5 109.5t-114.5 287.5zM694 1784l-112 -166 q-25 -33 -58 -33h-49q-37 0 -37 33q0 12 6 22l64 144q20 43 55 43h101q14 0 24 -9.5t10 -21.5q0 -4 -4 -12z" />
<glyph unicode="&#xdb;" horiz-adv-x="1032" d="M115 358v1057q0 14 10 25.5t27 11.5h94q16 0 26.5 -11t10.5 -26v-1057q0 -111 64.5 -178t169 -67t169 67.5t64.5 177.5v1057q0 14 10 25.5t26 11.5h95q16 0 26.5 -11t10.5 -26v-1057q0 -178 -115 -287.5t-287 -109.5t-286.5 109.5t-114.5 287.5zM563 1827q23 0 47 -33 l127 -190q6 -10 6 -19q0 -14 -24 -14h-86q-14 0 -31 18l-86 109l-86 -109q-16 -18 -31 -18h-86q-25 0 -24 14q0 8 6 19l127 190q25 33 47 33h94z" />
<glyph unicode="&#xdc;" horiz-adv-x="1032" d="M115 358v1057q0 14 10 25.5t27 11.5h94q16 0 26.5 -11t10.5 -26v-1057q0 -111 64.5 -178t169 -67t169 67.5t64.5 177.5v1057q0 14 10 25.5t26 11.5h95q16 0 26.5 -11t10.5 -26v-1057q0 -178 -115 -287.5t-287 -109.5t-286.5 109.5t-114.5 287.5zM461 1757v-100 q0 -14 -11.5 -25.5t-25.5 -11.5h-123q-14 0 -25.5 11t-11.5 26v100q0 16 11.5 26.5t25.5 10.5h123q14 0 25.5 -10.5t11.5 -26.5zM786 1757v-100q0 -14 -10 -25.5t-26 -11.5h-123q-16 0 -26.5 11t-10.5 26v100q0 16 10 26.5t27 10.5h123q16 0 26 -10.5t10 -26.5z" />
<glyph unicode="&#xdd;" horiz-adv-x="1064" d="M451 37v641l-383 727q-4 8 -5 14q0 33 35 33h84q18 0 28.5 -8t27.5 -39l294 -543l295 543q16 31 26.5 39t29.5 8h84q35 0 34 -33q0 -6 -4 -14l-383 -727v-641q0 -16 -10 -26.5t-26 -10.5h-91q-16 0 -26 10.5t-10 26.5zM666 1786l-113 -166q-25 -33 -57 -33h-50 q-37 0 -36 33q0 14 6 22l63 144q20 43 56 43h100q14 0 24.5 -9.5t10.5 -21.5q0 -4 -4 -12z" />
<glyph unicode="&#xde;" horiz-adv-x="970" d="M299 326v-289q0 -16 -10 -26.5t-27 -10.5h-90q-16 0 -26.5 10t-10.5 27v1378q0 14 10.5 25.5t26.5 11.5h90q16 0 26.5 -11t10.5 -26v-325h326q119 0 196.5 -78t77.5 -195v-219q0 -117 -78 -194.5t-196 -77.5h-326zM739 639v137q0 92 -45 133t-137 41h-258v-485h258 q92 0 137 41t45 133z" />
<glyph unicode="&#xdf;" horiz-adv-x="1032" d="M516 889h109q51 0 88 37t37 112v62q0 244 -240 243q-238 0 -238 -243v-1063q0 -16 -11 -26.5t-25 -10.5h-84q-16 0 -26.5 10t-10.5 27v1063q0 178 112.5 287.5t282.5 109.5q180 0 289.5 -104.5t109.5 -292.5q0 -209 -145 -283q90 -23 135 -84t45 -143v-332 q0 -117 -73.5 -187.5t-182.5 -70.5h-137q-14 0 -25.5 10t-11.5 27v67q0 14 11.5 25.5t25.5 11.5h92q135 0 135 150v258q0 113 -53 148.5t-141 35.5h-68q-16 0 -26.5 10.5t-10.5 26.5v82q0 16 10.5 26.5t26.5 10.5z" />
<glyph unicode="&#xe0;" horiz-adv-x="911" d="M428 1307l-113 166q-4 8 -4 12q0 12 10.5 21.5t24.5 9.5h100q35 0 56 -43l63 -144q6 -10 6 -22q0 -33 -36 -33h-50q-32 0 -57 33zM655 594l-315 -158q-113 -59 -113 -168q0 -78 49.5 -120t122.5 -42q98 0 177 58.5t79 157.5v272zM260 545l285 135q109 49 108 129 q0 82 -48 131t-146 49q-88 0 -138.5 -51t-50.5 -137v-8q0 -14 -10 -25.5t-27 -11.5h-77q-16 0 -26.5 11t-10.5 26v22q0 133 99 222t255 89q164 0 249 -93t85 -238v-758q0 -16 -10.5 -26.5t-26.5 -10.5h-78q-16 0 -26.5 10t-10.5 27v98q-41 -70 -120.5 -114t-174.5 -44 q-117 0 -203.5 74t-86.5 203q0 201 190 291z" />
<glyph unicode="&#xe1;" horiz-adv-x="911" d="M647 1473l-112 -166q-25 -33 -58 -33h-49q-37 0 -37 33q0 12 6 22l64 144q20 43 55 43h100q14 0 24.5 -9.5t10.5 -21.5q0 -4 -4 -12zM655 594l-315 -158q-113 -59 -113 -168q0 -78 49.5 -120t122.5 -42q98 0 177 58.5t79 157.5v272zM260 545l285 135q109 49 108 129 q0 82 -48 131t-146 49q-88 0 -138.5 -51t-50.5 -137v-8q0 -14 -10 -25.5t-27 -11.5h-77q-16 0 -26.5 11t-10.5 26v22q0 133 99 222t255 89q164 0 249 -93t85 -238v-758q0 -16 -10.5 -26.5t-26.5 -10.5h-78q-16 0 -26.5 10t-10.5 27v98q-41 -70 -120.5 -114t-174.5 -44 q-117 0 -203.5 74t-86.5 203q0 201 190 291z" />
<glyph unicode="&#xe2;" horiz-adv-x="911" d="M260 545l285 135q109 49 108 129q0 82 -48 131t-146 49q-88 0 -138.5 -51t-50.5 -137v-8q0 -14 -10 -25.5t-27 -11.5h-77q-16 0 -26.5 11t-10.5 26v22q0 133 99 222t255 89q164 0 249 -93t85 -238v-758q0 -16 -10.5 -26.5t-26.5 -10.5h-78q-16 0 -26.5 10t-10.5 27v98 q-41 -70 -120.5 -114t-174.5 -44q-117 0 -203.5 74t-86.5 203q0 201 190 291zM655 594l-315 -158q-113 -59 -113 -168q0 -78 49.5 -120t122.5 -42q98 0 177 58.5t79 157.5v272zM522 1487q23 0 47 -33l127 -190q6 -10 6 -19q0 -14 -24 -14h-86q-14 0 -31 18l-86 109l-86 -109 q-16 -18 -31 -18h-86q-25 0 -24 14q0 8 6 19l127 190q25 33 47 33h94z" />
<glyph unicode="&#xe3;" horiz-adv-x="911" d="M473 1296q-53 29 -98 29q-20 0 -42 -8t-42 -23l-21 -12q-6 -6 -18 -6q-16 0 -64 74q-8 12 -8 18q0 10 23 23q84 61 172 61q35 0 102 -29q72 -29 103 -28q29 0 104 47l18 6q16 0 64 -74q6 -8 6 -18q0 -6 -20.5 -24.5t-71.5 -41t-100 -22.5q-35 -1 -107 28zM655 594 l-315 -158q-113 -59 -113 -168q0 -78 49.5 -120t122.5 -42q98 0 177 58.5t79 157.5v272zM260 545l285 135q109 49 108 129q0 82 -48 131t-146 49q-88 0 -138.5 -51t-50.5 -137v-8q0 -14 -10 -25.5t-27 -11.5h-77q-16 0 -26.5 11t-10.5 26v22q0 133 99 222t255 89 q164 0 249 -93t85 -238v-758q0 -16 -10.5 -26.5t-26.5 -10.5h-78q-16 0 -26.5 10t-10.5 27v98q-41 -70 -120.5 -114t-174.5 -44q-117 0 -203.5 74t-86.5 203q0 201 190 291z" />
<glyph unicode="&#xe4;" horiz-adv-x="911" d="M408 1409v-100q0 -14 -11.5 -25.5t-25.5 -11.5h-123q-14 0 -25.5 11t-11.5 26v100q0 16 11 26.5t26 10.5h123q14 0 25.5 -10.5t11.5 -26.5zM733 1409v-100q0 -14 -10 -25.5t-27 -11.5h-123q-16 0 -26 11t-10 26v100q0 16 10 26.5t26 10.5h123q16 0 26.5 -10.5t10.5 -26.5 zM655 594l-315 -158q-113 -59 -113 -168q0 -78 49.5 -120t122.5 -42q98 0 177 58.5t79 157.5v272zM260 545l285 135q109 49 108 129q0 82 -48 131t-146 49q-88 0 -138.5 -51t-50.5 -137v-8q0 -14 -10 -25.5t-27 -11.5h-77q-16 0 -26.5 11t-10.5 26v22q0 133 99 222t255 89 q164 0 249 -93t85 -238v-758q0 -16 -10.5 -26.5t-26.5 -10.5h-78q-16 0 -26.5 10t-10.5 27v98q-41 -70 -120.5 -114t-174.5 -44q-117 0 -203.5 74t-86.5 203q0 201 190 291z" />
<glyph unicode="&#xe5;" horiz-adv-x="911" d="M322 1100h-3q-80 70 -79 174q0 92 68.5 160.5t160.5 68.5q94 0 162.5 -68.5t68.5 -160.5q0 -104 -79 -174q92 -35 139 -117t47 -188v-758q0 -16 -10.5 -26.5t-26.5 -10.5h-78q-16 0 -26.5 10t-10.5 27v98q-41 -70 -120.5 -114t-174.5 -44q-117 0 -203.5 74t-86.5 203 q0 201 190 291l285 135q109 49 108 129q0 82 -48 131t-146 49q-88 0 -138.5 -51t-50.5 -137v-8q0 -14 -10 -25.5t-27 -11.5h-77q-16 0 -26.5 11t-10.5 26v22q0 96 54.5 172t148.5 113zM655 594l-315 -158q-113 -59 -113 -168q0 -78 49.5 -120t122.5 -42q98 0 177 58.5 t79 157.5v272zM610 1274q0 51 -40 96t-101 45t-99 -44t-38 -97t38 -98.5t99 -45.5t101 45.5t40 98.5z" />
<glyph unicode="&#xe6;" horiz-adv-x="1472" d="M399 106q98 0 177 58.5t79 157.5v272l-315 -158q-113 -55 -113 -168q0 -78 49 -120t123 -42zM807 643h434v131q0 88 -64.5 151.5t-152.5 63.5q-92 0 -154.5 -63.5t-62.5 -151.5v-131zM653 809q0 82 -48 131t-146 49q-88 0 -138.5 -51t-50.5 -137v-8q0 -14 -10 -25.5 t-27 -11.5h-77q-16 0 -26.5 11t-10.5 26v22q0 133 99 222t255 89q186 0 272 -122q109 123 279 122q156 0 261.5 -104t105.5 -248v-221q0 -16 -11.5 -26.5t-25.5 -10.5h-547v-194q0 -88 62.5 -152t154.5 -64q86 0 149.5 59.5t63.5 139.5v17q0 14 10 25t27 11h80 q14 0 25.5 -11t11.5 -25v-17q0 -137 -107.5 -236.5t-259.5 -99.5q-102 0 -190.5 53.5t-128.5 127.5q-119 -184 -345 -185q-115 0 -202.5 79t-87.5 210q0 201 190 291l285 135q108 49 108 129z" />
<glyph unicode="&#xe7;" horiz-adv-x="907" d="M98 322v452q0 143 103.5 247.5t259 104.5t260 -104t104.5 -248v-10q0 -14 -11 -25.5t-26 -11.5h-79q-16 0 -26.5 11.5t-10.5 25.5v10q0 88 -60.5 151.5t-150.5 63.5q-88 0 -148.5 -63.5t-60.5 -151.5v-452q0 -88 60.5 -152t148.5 -64q90 0 150.5 63.5t60.5 152.5v20 q0 14 10 25.5t27 11.5h79q14 0 25.5 -11.5t11.5 -25.5v-20q0 -143 -103.5 -247t-258.5 -106l-23 -75q33 12 60 12q57 0 113.5 -44t56.5 -132q0 -74 -50.5 -133.5t-156.5 -59.5q-72 0 -148 55q-20 12 -20 27q0 16 10 27l27 26q14 14 24 15q6 0 19 -9q47 -35 94 -34 q35 0 53.5 24.5t18.5 61.5q0 84 -76 84q-10 0 -16 -2q-14 -4 -27.5 -15.5t-26.5 -11.5q-6 0 -22 4l-31 8q-20 6 -20 27q0 6 2 12l43 146q-119 29 -194 125t-75 215z" />
<glyph unicode="&#xe8;" horiz-adv-x="913" d="M248 643h434v131q0 88 -64.5 151.5t-152.5 63.5q-92 0 -154.5 -63.5t-62.5 -151.5v-131zM795 516h-547v-194q0 -88 62.5 -152t154.5 -64q86 0 149.5 59.5t63.5 139.5v17q0 14 11 25t26 11h80q16 0 26 -11t10 -25v-17q0 -137 -107.5 -236.5t-258.5 -99.5 q-156 0 -261.5 104.5t-105.5 248.5v452q0 143 105.5 247.5t261.5 104.5t261 -104t105 -248v-221q0 -16 -10 -26.5t-26 -10.5zM408 1270l-113 166q-4 8 -4 12q0 12 10 21.5t25 9.5h100q35 0 55 -43l64 -144q6 -10 6 -22q0 -33 -37 -33h-49q-32 0 -57 33z" />
<glyph unicode="&#xe9;" horiz-adv-x="913" d="M248 643h434v131q0 88 -64.5 151.5t-152.5 63.5q-92 0 -154.5 -63.5t-62.5 -151.5v-131zM795 516h-547v-194q0 -88 62.5 -152t154.5 -64q86 0 149.5 59.5t63.5 139.5v17q0 14 11 25t26 11h80q16 0 26 -11t10 -25v-17q0 -137 -107.5 -236.5t-258.5 -99.5 q-156 0 -261.5 104.5t-105.5 248.5v452q0 143 105.5 247.5t261.5 104.5t261 -104t105 -248v-221q0 -16 -10 -26.5t-26 -10.5zM649 1438l-112 -166q-25 -33 -58 -33h-49q-37 0 -37 33q0 14 6 22l64 144q20 43 55 43h100q14 0 24.5 -9.5t10.5 -21.5q0 -4 -4 -12z" />
<glyph unicode="&#xea;" horiz-adv-x="913" d="M795 516h-547v-194q0 -88 62.5 -152t154.5 -64q86 0 149.5 59.5t63.5 139.5v17q0 14 11 25t26 11h80q16 0 26 -11t10 -25v-17q0 -137 -107.5 -236.5t-258.5 -99.5q-156 0 -261.5 104.5t-105.5 248.5v452q0 143 105.5 247.5t261.5 104.5t261 -104t105 -248v-221 q0 -16 -10 -26.5t-26 -10.5zM248 643h434v131q0 88 -64.5 151.5t-152.5 63.5q-92 0 -154.5 -63.5t-62.5 -151.5v-131zM512 1489q23 0 47 -33l127 -190q6 -8 6 -19q0 -14 -24 -14h-86q-16 0 -31 18l-86 109l-86 -109q-14 -18 -31 -18h-86q-25 0 -24 14q0 10 6 19l127 190 q25 33 47 33h94z" />
<glyph unicode="&#xeb;" horiz-adv-x="913" d="M248 643h434v131q0 88 -64.5 151.5t-152.5 63.5q-92 0 -154.5 -63.5t-62.5 -151.5v-131zM795 516h-547v-194q0 -88 62.5 -152t154.5 -64q86 0 149.5 59.5t63.5 139.5v17q0 14 11 25t26 11h80q16 0 26 -11t10 -25v-17q0 -137 -107.5 -236.5t-258.5 -99.5 q-156 0 -261.5 104.5t-105.5 248.5v452q0 143 105.5 247.5t261.5 104.5t261 -104t105 -248v-221q0 -16 -10 -26.5t-26 -10.5zM387 1411v-100q0 -16 -11 -26.5t-26 -10.5h-123q-14 0 -25.5 10t-11.5 27v100q0 14 11.5 25.5t25.5 11.5h123q14 0 25.5 -11.5t11.5 -25.5z M713 1411v-100q0 -16 -10.5 -26.5t-26.5 -10.5h-123q-16 0 -26.5 10t-10.5 27v100q0 14 10.5 25.5t26.5 11.5h123q16 0 26.5 -11.5t10.5 -25.5z" />
<glyph unicode="&#xec;" horiz-adv-x="446" d="M170 37v1022q0 14 11.5 25.5t25.5 11.5h78q14 0 25.5 -11.5t11.5 -25.5v-1022q0 -16 -11.5 -26.5t-25.5 -10.5h-78q-14 0 -25.5 10.5t-11.5 26.5zM158 1270l-113 166q-4 8 -4 12q0 12 10 21.5t25 9.5h100q35 0 55 -43l64 -144q6 -10 6 -22q0 -33 -37 -33h-49 q-32 0 -57 33z" />
<glyph unicode="&#xed;" horiz-adv-x="434" d="M125 37v1022q0 14 11 25.5t26 11.5h78q14 0 25 -11.5t11 -25.5v-1022q0 -16 -11 -26.5t-25 -10.5h-78q-14 0 -25.5 10.5t-11.5 26.5zM389 1438l-113 -166q-25 -33 -57 -33h-49q-37 0 -37 33q0 14 6 22l64 144q20 43 55 43h100q14 0 24.5 -9.5t10.5 -21.5q0 -4 -4 -12z " />
<glyph unicode="&#xee;" horiz-adv-x="536" d="M195 37v1022q0 14 11 25.5t25 11.5h78q14 0 25.5 -11.5t11.5 -25.5v-1022q0 -16 -11 -26.5t-26 -10.5h-78q-14 0 -25 10.5t-11 26.5zM315 1497q23 0 47 -33l127 -190q6 -8 7 -19q0 -14 -25 -14h-86q-16 0 -31 19l-86 108l-86 -108q-14 -18 -30 -19h-86q-25 0 -25 14 q0 10 6 19l127 190q25 33 47 33h94z" />
<glyph unicode="&#xef;" horiz-adv-x="583" d="M227 1411v-100q0 -16 -11 -26.5t-26 -10.5h-122q-14 0 -25.5 10t-11.5 27v100q0 14 11 25.5t26 11.5h122q14 0 25.5 -11.5t11.5 -25.5zM553 1411v-100q0 -16 -10.5 -26.5t-26.5 -10.5h-123q-16 0 -26.5 10t-10.5 27v100q0 14 10.5 25.5t26.5 11.5h123q16 0 26.5 -11.5 t10.5 -25.5zM233 37v1022q0 14 10.5 25.5t26.5 11.5h78q16 0 26.5 -11.5t10.5 -25.5v-1022q0 -16 -10 -26.5t-27 -10.5h-78q-16 0 -26.5 10.5t-10.5 26.5z" />
<glyph unicode="&#xf0;" horiz-adv-x="1073" d="M272 700v-348q0 -106 57.5 -176t160 -70t160 70t57.5 176v348q0 106 -57.5 176t-160 70t-160 -70t-57.5 -176zM934 989h-74v-637q0 -174 -104.5 -285.5t-266 -111.5t-266 111.5t-104.5 285.5v363q0 166 98 275.5t248 109.5q135 0 242 -101v148q0 106 -57.5 172.5 t-160.5 66.5q-14 0 -25 11.5t-11 25.5v86q0 14 11 25.5t25 11.5q160 0 265.5 -118.5t105.5 -290.5h74q16 0 26.5 -11.5t10.5 -25.5v-74q0 -14 -10.5 -25.5t-26.5 -11.5z" />
<glyph unicode="&#xf1;" d="M268 737v-700q0 -16 -11 -26.5t-26 -10.5h-77q-14 0 -25.5 10t-11.5 27v1022q0 14 11 25.5t26 11.5h77q14 0 25.5 -11.5t11.5 -25.5v-96q84 166 271 165q113 0 197.5 -93t84.5 -251v-747q0 -16 -11 -26.5t-26 -10.5h-79q-16 0 -26.5 10t-10.5 27v700q0 252 -195 252 q-59 0 -102 -25.5t-63.5 -67.5t-30 -81t-9.5 -78zM494 1298q-53 29 -99 29q-20 0 -41.5 -8t-42.5 -21l-20 -14q-6 -6 -19 -6q-16 0 -63 74q-8 12 -8 18q0 10 22 23q84 61 172 61q35 0 103 -29q72 -29 102 -28q29 0 105 47l18 6q16 0 63 -74q6 -8 7 -18q0 -6 -20.5 -24.5 t-72 -41t-100.5 -22.5q-34 -1 -106 28z" />
<glyph unicode="&#xf2;" horiz-adv-x="929" d="M465 -31q-156 0 -261.5 104.5t-105.5 248.5v452q0 143 105.5 247.5t261.5 104.5t261 -104t105 -248v-452q0 -143 -105 -248t-261 -105zM465 989q-88 0 -150.5 -63.5t-62.5 -151.5v-452q0 -88 62.5 -152t150.5 -64t150.5 63.5t62.5 152.5v452q0 88 -62.5 151.5 t-150.5 63.5zM432 1272l-113 166q-4 8 -4 12q0 12 10.5 21.5t24.5 9.5h101q35 0 55 -43l63 -144q6 -8 6 -22q0 -33 -36 -33h-50q-32 0 -57 33z" />
<glyph unicode="&#xf3;" horiz-adv-x="929" d="M465 -31q-156 0 -261.5 104.5t-105.5 248.5v452q0 143 105.5 247.5t261.5 104.5t261 -104t105 -248v-452q0 -143 -105 -248t-261 -105zM465 989q-88 0 -150.5 -63.5t-62.5 -151.5v-452q0 -88 62.5 -152t150.5 -64t150.5 63.5t62.5 152.5v452q0 88 -62.5 151.5 t-150.5 63.5zM655 1442l-112 -166q-25 -33 -58 -33h-49q-37 0 -37 33q0 14 7 22l63 144q20 43 55 43h101q14 0 24 -9.5t10 -21.5q0 -4 -4 -12z" />
<glyph unicode="&#xf4;" horiz-adv-x="929" d="M465 -31q-156 0 -261.5 104.5t-105.5 248.5v452q0 143 105.5 247.5t261.5 104.5t261 -104t105 -248v-452q0 -143 -105 -248t-261 -105zM465 989q-88 0 -150.5 -63.5t-62.5 -151.5v-452q0 -88 62.5 -152t150.5 -64t150.5 63.5t62.5 152.5v452q0 88 -62.5 151.5 t-150.5 63.5zM512 1489q23 0 47 -33l127 -190q6 -8 6 -19q0 -14 -24 -14h-86q-16 0 -31 18l-86 109l-86 -109q-14 -18 -31 -18h-86q-25 0 -24 14q0 10 6 19l127 190q25 33 47 33h94z" />
<glyph unicode="&#xf5;" horiz-adv-x="929" d="M465 -31q-156 0 -261.5 104.5t-105.5 248.5v452q0 143 105.5 247.5t261.5 104.5t261 -104t105 -248v-452q0 -143 -105 -248t-261 -105zM465 989q-88 0 -150.5 -63.5t-62.5 -151.5v-452q0 -88 62.5 -152t150.5 -64t150.5 63.5t62.5 152.5v452q0 88 -62.5 151.5 t-150.5 63.5zM463 1300q-53 29 -98 29q-20 0 -42 -8t-42 -23l-21 -12q-6 -6 -18 -6q-16 0 -64 74q-8 12 -8 18q0 10 23 23q84 61 172 61q35 0 102 -29q72 -29 102 -28q29 0 105 47l18 6q16 0 64 -74q6 -8 6 -18q0 -6 -20.5 -24.5t-72 -41t-100.5 -22.5q-34 -1 -106 28z" />
<glyph unicode="&#xf6;" horiz-adv-x="929" d="M465 -31q-156 0 -261.5 104.5t-105.5 248.5v452q0 143 105.5 247.5t261.5 104.5t261 -104t105 -248v-452q0 -143 -105 -248t-261 -105zM465 989q-88 0 -150.5 -63.5t-62.5 -151.5v-452q0 -88 62.5 -152t150.5 -64t150.5 63.5t62.5 152.5v452q0 88 -62.5 151.5 t-150.5 63.5zM401 1415v-100q0 -16 -10 -26.5t-26 -10.5h-123q-16 0 -26.5 10t-10.5 27v100q0 14 10 25.5t27 11.5h123q16 0 26 -11.5t10 -25.5zM727 1415v-100q0 -16 -11 -26.5t-26 -10.5h-123q-14 0 -25.5 10t-11.5 27v100q0 14 11.5 25.5t25.5 11.5h123q14 0 25.5 -11.5 t11.5 -25.5z" />
<glyph unicode="&#xf7;" horiz-adv-x="1173" d="M215 629h743q16 0 26.5 -11.5t10.5 -25.5v-74q0 -14 -10 -25.5t-27 -11.5h-743q-14 0 -25.5 11.5t-11.5 25.5v74q0 14 11.5 25.5t25.5 11.5zM674 975v-88q0 -14 -11.5 -25.5t-25.5 -11.5h-107q-14 0 -25 11t-11 26v88q0 16 11 26.5t25 10.5h107q14 0 25.5 -10.5 t11.5 -26.5zM674 213v-88q0 -14 -11.5 -25.5t-25.5 -11.5h-107q-14 0 -25 11.5t-11 25.5v88q0 16 11 26.5t25 10.5h107q14 0 25.5 -10.5t11.5 -26.5z" />
<glyph unicode="&#xf8;" horiz-adv-x="909" d="M240 39l-27 -49q-6 -20 -29 -21q-12 0 -20 6l-55 31q-18 12 -19 31q0 14 4 20l49 86q-51 84 -51 179v452q0 143 105.5 247.5t261.5 104.5q115 0 205 -61l36 63q8 18 33 19q12 0 19 -4l55 -33q16 -10 16 -29q0 -14 -4 -20l-53 -94q59 -92 59 -193v-452q0 -143 -105.5 -248 t-260.5 -105q-119 0 -219 70zM459 106q88 0 150.5 63.5t62.5 152.5v452q0 16 -2 23l-359 -631q64 -60 148 -60zM459 989q-88 0 -150.5 -63.5t-62.5 -151.5v-450l348 616q-59 49 -135 49z" />
<glyph unicode="&#xf9;" d="M657 358v701q0 14 11.5 25.5t25.5 11.5h78q14 0 25.5 -11.5t11.5 -25.5v-1022q0 -16 -11.5 -26.5t-25.5 -10.5h-78q-14 0 -25.5 10t-11.5 27v96q-84 -166 -241 -166q-127 0 -219.5 92.5t-92.5 251.5v748q0 14 11.5 25.5t25.5 11.5h80q16 0 26.5 -11.5t10.5 -25.5v-701 q0 -252 195 -252q59 0 102 26t63.5 68t29.5 80.5t9 77.5zM397 1276l-112 166q-4 8 -4 12q0 12 10 21.5t24 9.5h101q35 0 55 -43l64 -144q6 -8 6 -22q0 -33 -37 -33h-49q-33 0 -58 33z" />
<glyph unicode="&#xfa;" d="M657 358v701q0 14 11.5 25.5t25.5 11.5h78q14 0 25.5 -11.5t11.5 -25.5v-1022q0 -16 -11.5 -26.5t-25.5 -10.5h-78q-14 0 -25.5 10t-11.5 27v96q-84 -166 -241 -166q-127 0 -219.5 92.5t-92.5 251.5v748q0 14 11.5 25.5t25.5 11.5h80q16 0 26.5 -11.5t10.5 -25.5v-701 q0 -252 195 -252q59 0 102 26t63.5 68t29.5 80.5t9 77.5zM631 1442l-113 -166q-25 -33 -57 -33h-49q-37 0 -37 33q0 14 6 22l63 144q20 43 56 43h100q14 0 24.5 -9.5t10.5 -21.5q0 -4 -4 -12z" />
<glyph unicode="&#xfb;" d="M657 358v701q0 14 11.5 25.5t25.5 11.5h78q14 0 25.5 -11.5t11.5 -25.5v-1022q0 -16 -11.5 -26.5t-25.5 -10.5h-78q-14 0 -25.5 10t-11.5 27v96q-84 -166 -241 -166q-127 0 -219.5 92.5t-92.5 251.5v748q0 14 11.5 25.5t25.5 11.5h80q16 0 26.5 -11.5t10.5 -25.5v-701 q0 -252 195 -252q59 0 102 26t63.5 68t29.5 80.5t9 77.5zM502 1499q23 0 47 -33l127 -190q6 -10 6 -19q0 -14 -25 -14h-86q-14 0 -30 19l-86 108l-86 -108q-16 -18 -31 -19h-86q-25 0 -25 14q0 8 6 19l127 190q25 33 48 33h94z" />
<glyph unicode="&#xfc;" d="M657 358v701q0 14 11.5 25.5t25.5 11.5h78q14 0 25.5 -11.5t11.5 -25.5v-1022q0 -16 -11.5 -26.5t-25.5 -10.5h-78q-14 0 -25.5 10t-11.5 27v96q-84 -166 -241 -166q-127 0 -219.5 92.5t-92.5 251.5v748q0 14 11.5 25.5t25.5 11.5h80q16 0 26.5 -11.5t10.5 -25.5v-701 q0 -252 195 -252q59 0 102 26t63.5 68t29.5 80.5t9 77.5zM399 1411v-100q0 -16 -11 -26.5t-26 -10.5h-122q-14 0 -25.5 10t-11.5 27v100q0 14 11 25.5t26 11.5h122q14 0 25.5 -11.5t11.5 -25.5zM725 1411v-100q0 -16 -10 -26.5t-27 -10.5h-123q-16 0 -26.5 10t-10.5 27v100 q0 14 10.5 25.5t26.5 11.5h123q16 0 26.5 -11.5t10.5 -25.5z" />
<glyph unicode="&#xfd;" horiz-adv-x="944" d="M299 -377h-86q-16 0 -26.5 10.5t-10.5 26.5v68q0 14 10.5 25t26.5 11h92q109 0 109 74q0 27 -15 78l-344 1135q-2 6 -2 12q0 33 31 33h86q31 0 39 -33l276 -963l252 963q8 33 39 33h84q31 0 31 -33q0 -6 -2 -12l-340 -1244q-31 -113 -91.5 -148.5t-158.5 -35.5zM616 1438 l-112 -166q-25 -33 -58 -33h-49q-37 0 -37 33q0 14 7 22l63 144q20 43 55 43h101q14 0 24.5 -9.5t10.5 -21.5q-1 -4 -5 -12z" />
<glyph unicode="&#xfe;" horiz-adv-x="927" d="M672 315v465q0 92 -56.5 150.5t-146.5 58.5q-84 0 -140.5 -62.5t-56.5 -146.5v-465q0 -84 56.5 -146.5t140.5 -62.5q90 0 146.5 58.5t56.5 150.5zM113 -340v1755q0 14 11 25.5t26 11.5h86q14 0 25 -11t11 -26v-440q33 66 98.5 108.5t147.5 42.5q117 0 212 -89t95 -240 v-500q0 -152 -95 -241t-212 -89q-82 0 -147.5 43t-98.5 109v-459q0 -16 -11 -26.5t-25 -10.5h-86q-14 0 -25.5 10.5t-11.5 26.5z" />
<glyph unicode="&#xff;" horiz-adv-x="944" d="M299 -377h-86q-16 0 -26.5 10.5t-10.5 26.5v68q0 14 10.5 25t26.5 11h92q109 0 109 74q0 27 -15 78l-344 1135q-2 6 -2 12q0 33 31 33h86q31 0 39 -33l276 -963l252 963q8 33 39 33h84q31 0 31 -33q0 -6 -2 -12l-340 -1244q-31 -113 -91.5 -148.5t-158.5 -35.5zM410 1411 v-100q0 -16 -10.5 -26.5t-26.5 -10.5h-123q-16 0 -26.5 10t-10.5 27v100q0 14 10 25.5t27 11.5h123q16 0 26.5 -11.5t10.5 -25.5zM735 1411v-100q0 -16 -11 -26.5t-26 -10.5h-123q-14 0 -25 10t-11 27v100q0 14 11 25.5t25 11.5h123q14 0 25.5 -11.5t11.5 -25.5z" />
<glyph unicode="&#x152;" horiz-adv-x="1533" d="M512 106q104 0 168.5 68t64.5 178v744q0 111 -64.5 179t-168.5 68t-168.5 -68.5t-64.5 -178.5v-744q0 -111 64.5 -178.5t168.5 -67.5zM1417 1305h-504v-453h418q16 0 26.5 -10.5t10.5 -26.5v-74q0 -16 -10 -26t-27 -10h-418v-558h512q16 0 26.5 -10t10.5 -26v-74 q0 -16 -10 -26.5t-27 -10.5h-714q-84 -45 -199 -45q-172 0 -286.5 109.5t-114.5 287.5v744q0 178 114.5 288.5t286.5 110.5q100 0 190 -43h715q16 0 26.5 -11t10.5 -26v-74q0 -14 -10.5 -25t-26.5 -11z" />
<glyph unicode="&#x153;" horiz-adv-x="1497" d="M831 643h435v131q0 88 -64.5 151.5t-152.5 63.5q-92 0 -155 -63.5t-63 -151.5v-131zM758 109q-109 -139 -293 -140q-156 0 -261.5 104.5t-105.5 248.5v452q0 143 105.5 247.5t261.5 104.5q184 0 293 -139q109 139 291 139q156 0 261 -104t105 -248v-221q0 -16 -11 -26.5 t-26 -10.5h-547v-194q0 -88 62.5 -152t155.5 -64q86 0 149.5 59.5t63.5 139.5v17q0 14 10 25t26 11h80q14 0 25.5 -11t11.5 -25v-17q0 -137 -107.5 -236.5t-258.5 -99.5q-182 1 -291 140zM465 989q-88 0 -150.5 -63.5t-62.5 -151.5v-452q0 -88 62.5 -152t150.5 -64 t150.5 63.5t62.5 152.5v452q0 88 -62.5 151.5t-150.5 63.5z" />
<glyph unicode="&#x178;" horiz-adv-x="1064" d="M451 37v641l-383 727q-4 8 -5 14q0 33 35 33h84q18 0 28.5 -8t27.5 -39l294 -543l295 543q16 31 26.5 39t29.5 8h84q35 0 34 -33q0 -6 -4 -14l-383 -727v-641q0 -16 -10 -26.5t-26 -10.5h-91q-16 0 -26 10.5t-10 26.5zM451 1757v-100q0 -14 -10.5 -25.5t-26.5 -11.5h-123 q-16 0 -26.5 11t-10.5 26v100q0 16 10 26.5t27 10.5h123q16 0 26.5 -10.5t10.5 -26.5zM776 1757v-100q0 -14 -11 -25.5t-26 -11.5h-123q-14 0 -25 11t-11 26v100q0 16 11 26.5t25 10.5h123q14 0 25.5 -10.5t11.5 -26.5z" />
<glyph unicode="&#x2c6;" horiz-adv-x="849" d="M471 1516q23 0 47 -33l127 -191q6 -10 6 -18q0 -14 -24 -14h-86q-16 0 -31 18l-86 108l-86 -108q-14 -18 -31 -18h-86q-25 0 -24 14q0 8 6 18l127 191q25 33 47 33h94z" />
<glyph unicode="&#x2dc;" horiz-adv-x="917" d="M455 1317q-53 29 -99 29q-20 0 -41.5 -8.5t-42.5 -22.5l-20 -12q-6 -6 -19 -7q-16 0 -63 74q-8 12 -8 19q0 10 22 22q84 61 172 62q35 0 103 -29q72 -29 102 -29q29 0 105 47l18 6q16 0 64 -73q6 -8 6 -19q0 -6 -20.5 -24.5t-72 -41t-100.5 -22.5q-34 0 -106 29z" />
<glyph unicode="&#x2000;" horiz-adv-x="923" />
<glyph unicode="&#x2001;" horiz-adv-x="1847" />
<glyph unicode="&#x2002;" horiz-adv-x="923" />
<glyph unicode="&#x2003;" horiz-adv-x="1847" />
<glyph unicode="&#x2004;" horiz-adv-x="614" />
<glyph unicode="&#x2005;" horiz-adv-x="460" />
<glyph unicode="&#x2006;" horiz-adv-x="307" />
<glyph unicode="&#x2007;" horiz-adv-x="307" />
<glyph unicode="&#x2008;" horiz-adv-x="229" />
<glyph unicode="&#x2009;" horiz-adv-x="368" />
<glyph unicode="&#x200a;" horiz-adv-x="102" />
<glyph unicode="&#x2010;" horiz-adv-x="927" d="M150 623h628q16 0 26.5 -10.5t10.5 -26.5v-74q0 -16 -10 -26.5t-27 -10.5h-628q-14 0 -25.5 10.5t-11.5 26.5v74q0 16 11.5 26.5t25.5 10.5z" />
<glyph unicode="&#x2011;" horiz-adv-x="927" d="M150 623h628q16 0 26.5 -10.5t10.5 -26.5v-74q0 -16 -10 -26.5t-27 -10.5h-628q-14 0 -25.5 10.5t-11.5 26.5v74q0 16 11.5 26.5t25.5 10.5z" />
<glyph unicode="&#x2012;" horiz-adv-x="927" d="M150 623h628q16 0 26.5 -10.5t10.5 -26.5v-74q0 -16 -10 -26.5t-27 -10.5h-628q-14 0 -25.5 10.5t-11.5 26.5v74q0 16 11.5 26.5t25.5 10.5z" />
<glyph unicode="&#x2013;" horiz-adv-x="1083" d="M109 623h866q16 0 26.5 -10.5t10.5 -26.5v-74q0 -16 -10.5 -26.5t-26.5 -10.5h-866q-14 0 -25.5 10.5t-11.5 26.5v74q0 16 11.5 26.5t25.5 10.5z" />
<glyph unicode="&#x2014;" horiz-adv-x="1333" d="M150 623h1075q16 0 26.5 -10.5t10.5 -26.5v-74q0 -16 -10.5 -26.5t-26.5 -10.5h-1075q-14 0 -25.5 10.5t-11.5 26.5v74q0 16 11.5 26.5t25.5 10.5z" />
<glyph unicode="&#x2018;" horiz-adv-x="413" d="M258 1364h-8q-27 -2 -45.5 -28.5t-18.5 -59.5q0 -47 41 -51h58q14 0 25.5 -10.5t11.5 -26.5v-117q0 -14 -11.5 -25.5t-25.5 -11.5h-146q-16 0 -26.5 11.5t-10.5 25.5v154q0 82 36 143.5t102 69.5h18q23 0 23 -21v-31q0 -22 -23 -22z" />
<glyph unicode="&#x2019;" horiz-adv-x="413" d="M115 1122h8q27 2 45 29t18 59q0 47 -41 52h-57q-14 0 -25.5 10t-11.5 26v117q0 14 11.5 25.5t25.5 11.5h145q16 0 26.5 -11t10.5 -26v-153q0 -82 -35.5 -143.5t-101.5 -69.5h-18q-23 0 -23 20v31q0 22 23 22z" />
<glyph unicode="&#x201a;" horiz-adv-x="464" d="M176 -139h8q27 2 45.5 28.5t18.5 59.5q0 47 -41 51h-57q-14 0 -25.5 10t-11.5 27v117q0 14 11 25t26 11h145q16 0 26.5 -11t10.5 -25v-154q0 -82 -36 -143.5t-101 -69.5h-19q-23 0 -22 20v31q-1 23 22 23z" />
<glyph unicode="&#x201c;" horiz-adv-x="835" d="M248 1364h-8q-27 -2 -45.5 -28.5t-18.5 -59.5q0 -47 41 -51h57q16 0 26.5 -10.5t10.5 -26.5v-117q0 -14 -10 -25.5t-27 -11.5h-145q-14 0 -25.5 11.5t-11.5 25.5v154q0 82 36 143.5t101 69.5h19q23 0 22 -21v-31q1 -22 -22 -22zM618 1364h-8q-27 -2 -45 -28.5t-18 -59.5 q0 -47 41 -51h57q14 0 25.5 -10.5t11.5 -26.5v-117q0 -14 -11.5 -25.5t-25.5 -11.5h-145q-16 0 -26.5 11.5t-10.5 25.5v154q0 82 36 143.5t101 69.5h18q23 0 23 -21v-31q0 -22 -23 -22z" />
<glyph unicode="&#x201d;" horiz-adv-x="835" d="M176 1122h8q27 2 45.5 29t18.5 59q0 47 -41 52h-57q-14 0 -25.5 10t-11.5 26v117q0 14 11 25.5t26 11.5h145q16 0 26.5 -11t10.5 -26v-153q0 -82 -36 -143.5t-101 -69.5h-19q-23 0 -22 20v31q-1 22 22 22zM547 1122h8q27 2 45 29t18 59q0 47 -40 52h-58q-16 0 -26.5 10 t-10.5 26v117q0 14 10.5 25.5t26.5 11.5h146q14 0 25 -11t11 -26v-153q0 -82 -35.5 -143.5t-101.5 -69.5h-18q-23 0 -23 20v31q0 22 23 22z" />
<glyph unicode="&#x201e;" horiz-adv-x="833" d="M176 -139h8q27 2 45.5 28.5t18.5 59.5q0 47 -41 51h-57q-14 0 -25.5 10t-11.5 27v117q0 14 11 25t26 11h145q16 0 26.5 -11t10.5 -25v-154q0 -82 -36 -143.5t-101 -69.5h-19q-23 0 -22 20v31q-1 23 22 23zM545 -139h8q27 2 45 28.5t18 59.5q0 47 -41 51h-57 q-14 0 -25.5 10t-11.5 27v117q0 14 11.5 25t25.5 11h146q16 0 26 -11t10 -25v-154q0 -82 -35.5 -143.5t-101.5 -69.5h-18q-23 0 -23 20v31q0 23 23 23z" />
<glyph unicode="&#x2022;" horiz-adv-x="643" d="M92 549q0 94 66.5 160.5t161 66.5t161 -66.5t66.5 -160.5t-66.5 -160.5t-161 -66.5t-161 66.5t-66.5 160.5z" />
<glyph unicode="&#x2026;" horiz-adv-x="1402" d="M811 154v-117q0 -16 -10 -26.5t-27 -10.5h-145q-14 0 -25.5 10t-11.5 27v117q0 14 11 25t26 11h145q16 0 26.5 -11t10.5 -25zM352 154v-117q0 -16 -10 -26.5t-27 -10.5h-145q-14 0 -25.5 10t-11.5 27v117q0 14 11.5 25t25.5 11h145q16 0 26.5 -11t10.5 -25zM1270 154 v-117q0 -16 -10.5 -26.5t-26.5 -10.5h-146q-14 0 -25 10t-11 27v117q0 14 11 25t25 11h146q16 0 26.5 -11t10.5 -25z" />
<glyph unicode="&#x202f;" horiz-adv-x="368" />
<glyph unicode="&#x2039;" horiz-adv-x="694" d="M510 764l-250 -229l250 -230q41 -41 41 -61v-84q0 -14 -11.5 -24.5t-23.5 -10.5q-20 0 -35 12l-340 320q-29 25 -28 49v57q0 25 28 49l340 320q14 12 35 12q12 0 23.5 -10t11.5 -25v-84q0 -20 -41 -61z" />
<glyph unicode="&#x203a;" horiz-adv-x="694" d="M434 535l-250 229q-41 41 -41 61v84q0 14 11.5 24.5t23.5 10.5q18 0 35 -12l340 -320q29 -25 29 -49v-57q0 -25 -29 -49l-340 -320q-16 -12 -35 -12q-12 0 -23.5 10t-11.5 25v84q0 20 41 61z" />
<glyph unicode="&#x205f;" horiz-adv-x="460" />
<glyph unicode="&#x20ac;" horiz-adv-x="1138" d="M375 629h291q14 0 25 -11.5t11 -25.5v-74q0 -14 -11 -25.5t-25 -11.5h-283q16 -201 105.5 -288t203.5 -87q188 0 242 152q14 35 51 35q12 0 25 -4l55 -13q37 -6 37 -45q0 -12 -4 -20q-33 -109 -137.5 -181.5t-268.5 -72.5q-221 0 -343 140.5t-146 383.5h-131 q-14 0 -25.5 11.5t-11.5 25.5v74q0 14 11 25.5t26 11.5h123v172h-123q-14 0 -25.5 11t-11.5 26v73q0 14 11 25.5t26 11.5h129q18 254 141 402.5t350 148.5q164 0 268.5 -72.5t137.5 -181.5q4 -8 4 -20q0 -39 -37 -45l-55 -13q-12 -4 -25 -4q-37 0 -51 35q-53 152 -242 152 q-117 0 -209 -97.5t-102 -304.5h393q16 0 26.5 -11t10.5 -26v-73q0 -14 -10 -25.5t-27 -11.5h-399v-172z" />
<glyph unicode="&#x2122;" horiz-adv-x="1396" d="M395 1335v-557q0 -10 -8 -19t-20 -9h-78q-10 0 -18.5 9t-8.5 19v555h-145q-29 0 -29 25v65q0 27 29 27h424q27 0 26 -27v-63q0 -25 -26 -25h-146zM973 991l137 428q10 33 27 33h145q10 0 18.5 -9t8.5 -20v-645q0 -10 -8.5 -19t-18.5 -9h-68q-10 0 -18 9t-8 19v520 l-174 -516q-8 -33 -41 -32.5t-41 32.5l-174 516v-520q0 -10 -8.5 -19t-18.5 -9h-67q-10 0 -18.5 9t-8.5 19v645q0 10 8 19.5t19 9.5h145q16 0 27 -33z" />
<glyph unicode="&#xe000;" horiz-adv-x="1095" d="M0 1095h1095v-1095h-1095v1095z" />
<glyph unicode="&#xfb01;" horiz-adv-x="950" d="M109 37v1171q0 111 69.5 177.5t196.5 66.5h411q16 0 26.5 -11t10.5 -26v-69q0 -14 -10 -25.5t-27 -11.5h-387q-84 0 -111.5 -32t-27.5 -114v-139h229q14 0 25.5 -10t11.5 -27v-69q0 -16 -11 -26.5t-26 -10.5h-229v-844q0 -16 -11 -26.5t-26 -10.5h-78q-14 0 -25 10.5 t-11 26.5zM674 37v1022q0 14 11 25.5t26 11.5h77q14 0 25.5 -11.5t11.5 -25.5v-1022q0 -16 -11 -26.5t-26 -10.5h-77q-14 0 -25.5 10.5t-11.5 26.5z" />
<glyph unicode="&#xfb02;" horiz-adv-x="970" d="M694 1309h-295q-84 0 -111.5 -32t-27.5 -114v-139h229q14 0 25.5 -10t11.5 -27v-69q0 -16 -11 -26.5t-26 -10.5h-229v-844q0 -16 -11 -26.5t-26 -10.5h-78q-14 0 -25 10t-11 27v1171q0 111 69.5 177.5t196.5 66.5h434q14 0 25.5 -11t11.5 -26v-1378q0 -16 -11.5 -26.5 t-25.5 -10.5h-78q-14 0 -25.5 10t-11.5 27v1272z" />
<glyph unicode="&#xfb03;" horiz-adv-x="1576" d="M1288 37v1022q0 14 11.5 25.5t25.5 11.5h78q14 0 25.5 -11.5t11.5 -25.5v-1022q0 -16 -11.5 -26.5t-25.5 -10.5h-78q-14 0 -25.5 10.5t-11.5 26.5zM1276 1317v98q0 14 11 25.5t26 11.5h102q14 0 25.5 -11t11.5 -26v-98q0 -14 -11 -25.5t-26 -11.5h-102q-14 0 -25.5 11.5 t-11.5 25.5zM684 37v1171q0 111 69.5 177.5t196.5 66.5h112q16 0 26.5 -11t10.5 -26v-69q0 -14 -10 -25.5t-27 -11.5h-88q-84 0 -111.5 -32t-27.5 -114v-119h227q16 0 26.5 -10t10.5 -26v-70q0 -16 -10 -26.5t-27 -10.5h-227v-864q0 -16 -11 -26.5t-26 -10.5h-78 q-14 0 -25 10.5t-11 26.5zM109 37v1171q0 111 69.5 177.5t196.5 66.5h112q16 0 26.5 -11t10.5 -26v-69q0 -14 -10 -25.5t-27 -11.5h-88q-84 0 -111.5 -32t-27.5 -114v-119h227q16 0 26.5 -10t10.5 -26v-70q0 -16 -10 -26.5t-27 -10.5h-227v-864q0 -16 -11 -26.5t-26 -10.5 h-78q-14 0 -25 10.5t-11 26.5z" />
<glyph unicode="&#xfb04;" horiz-adv-x="1552" d="M1427 1415v-1378q0 -16 -11 -26.5t-25 -10.5h-78q-14 0 -25.5 10t-11.5 27v1378q0 14 11 25.5t26 11.5h78q14 0 25 -11.5t11 -25.5zM684 37v1171q0 111 69.5 177.5t196.5 66.5h112q16 0 26.5 -11t10.5 -26v-69q0 -14 -10 -25.5t-27 -11.5h-88q-84 0 -111.5 -32 t-27.5 -114v-119h227q16 0 26.5 -10t10.5 -26v-70q0 -16 -10 -26.5t-27 -10.5h-227v-864q0 -16 -11 -26.5t-26 -10.5h-78q-14 0 -25 10.5t-11 26.5zM109 37v1171q0 111 69.5 177.5t196.5 66.5h112q16 0 26.5 -11t10.5 -26v-69q0 -14 -10 -25.5t-27 -11.5h-88 q-84 0 -111.5 -32t-27.5 -114v-119h227q16 0 26.5 -10t10.5 -26v-70q0 -16 -10 -26.5t-27 -10.5h-227v-864q0 -16 -11 -26.5t-26 -10.5h-78q-14 0 -25 10.5t-11 26.5z" />
</font>
</defs>
</svg>
